<mxfile host="app.diagrams.net" agent="Mozilla/5.0 (Windows NT 10.0; Win64; x64) AppleWebKit/537.36 (KHTML, like Gecko) Chrome/134.0.0.0 Safari/537.36" version="26.1.1">
  <diagram name="PÃ¡gina-1" id="mHqIiN0rCJGAO7KEt9rb">
    <mxGraphModel dx="1590" dy="609" grid="1" gridSize="10" guides="1" tooltips="1" connect="1" arrows="1" fold="1" page="1" pageScale="1" pageWidth="827" pageHeight="1169" math="0" shadow="0">
      <root>
        <mxCell id="0" />
        <mxCell id="1" parent="0" />
        <mxCell id="TP16WEpkgP-LbKeWSAi--1" value="" style="shape=image;verticalLabelPosition=bottom;labelBackgroundColor=default;verticalAlign=top;aspect=fixed;imageAspect=0;image=data:image/png,iVBORw0KGgoAAAANSUhEUgAAArsAAAChCAYAAADHsXdWAAAAAXNSR0IArs4c6QAAAARnQU1BAACxjwv8YQUAAAAJcEhZcwAADsMAAA7DAcdvqGQAAL1LSURBVHhe7J0JQFTV/se/M8wKCgMK4sbigrtIIq7gkiYmqWg+FRd86vNvZqblWrklrqllpSkuWKK5lprbS9ywFMMEAdcokRQFcYtFtpnf/9yZYROYO4Ca+c7nvXnPu53zO7/t/O6dewYJMcDhcDgcDofD4byESI3/z+FwOBwOh8PhvHTwYpfD4XA4HA6H89LCi10Oh8PhcDgczktLyXd2tX/g+6X7UGXURPSoUaQWzkzAiV27cPzSXeRVdUbbPkPg18JWtFrOu7ID84NP4y8LNwz4aDw62RgPCORdwY75wTj9lxwtAuZhdBuV8UBl0CHtdjJQoyaqPqVSPufXEMwKvQBd0yH45D9tjXv/aeTg15BZCL2gQ9Mh8/Gftk9D1xwOh8PhcDgvNsXLQd19hM8dhlFzt+DsvcIaWPfgKKb7tELPqZsREf87or5fiEFenhgeeh1a4zllIasBXNv8BT5bMQsrD9w37jWQF70Z8xd9is+DI5FhrzDurQQPoxAyoStavLEKV3XGfU+BvKv7sWrlSnyx75Jxzz+RPFzdvworV36BfZeyjfs4HA6Hw+FwXm4Kit3sP49h2ZAO6L30V2QUe9arxW/Bs/FFog9WRZzHf3ftwsFfLuD7kTLsmvMpTonVTba98K9eDpDqHuLod4dQWO7mIfr7H3A1VwIr739hgFPlH8PmxG3G4rXhSMox7uAUQYlOUzZjx46tmNHVyriPw+FwOBwO5+XGUGHq/sTaQH98dqcnVoW8DTeZfq8RArl0ReB7b+NNVwvDLmk1dOrUDIo7f+LPXMOusqmK1wb1Rk0LHR4d3Y2D94y78y5gzw9XkCuxRtd/9UNNaR4S989GP/easJTLUaV2K/SfvR838gynZ4fNRGfPNnh93nZsn9oTjeyUkFvVgufw1fg1nZXkCRsx5q1vkahlTf++CYHt/bE8Og+6lBNYPMgTTjYKSKUyqKs3ROexGxGTYWi3JHlI2DMDvRpXg1JhiVqew/DlhXSmhaKYlrUEWQfwfgdPePWdj60bxsHbuSoUympo4jcLB/40PhvXpeDE4kHwdLKBQiqFTF0dDTuPxcYCQTMQs3EcujWyh6VMOF4NDX3GIDgqzXhch5QTizHI0wk2CimkMjWqN+yMsRtj2JUCebj0/QosXvIJdsYY71DyErF/dj+417SEXF4FtVv1x+z9N9iZBjJiNmJct0awt5Tp26vW0AdjgqOQ3yOHw+FwOBzOC4/wzi5RBiVc/oPS2L9yf5lJzdWeNP9inuFQaWhv0IY+9qRut5BMnVZAxo80ztmCINWQ/9cp+l255z6klnKQ1LY/bU4lenzmQ/KwlJBE7kit/fqRj6slSSRqavXBaSYda2L7v8haIiGFVRWyrd+Z/Pt3pnrsfLBzvD+5Snl/BNMgN3tSSkASVQ1q0OJ1WvzLHdoZUJMsJHJybN2XAoa8QR4OMtauJb22+hZp9ZIUJ/v8PPLUt2tJLh37Uj9vV7JibQqqUvpt1J8jJmsJMr6hvkoml9KSrKo6U4e+/cjb1YokkFDVjospJldLqTsDqKaFhOSOralvwBB6w8OBZGy8lq+tpltM0OwIZhe5hGT2raj34KH0ZpcGVFXKznd7l46zTrWpOymgpoVBpr4BNOQND3KQMRktX6PVQgNMsi39hT6V5LfxIdt+TGc+9CBL1ofQp18/H3IVxqRuRR+cZg1mR9DM5nKSyOypVe/BNPTNLtSgqpS170bvCh1yOBwOh8Ph/AMwFruFiBa72hQ6OqMtaSyb0+SwB8adYmTR8Xfqk4wVd5q+myhZm0vnP2pJckip+uDtdJ+V2buH2pOUFaWtZ0exs1k3icH0ukZKUodh9B2rwg3FLiuO7d+k0DtC8ZZNZ6Y2YW2yNkbs0feSfWoyuclA8hYfUmSu0MgdOrvjK1q+ZAudF+qzvPt0fFJT1q+M3N77ibXwJNl04p16ZMHarPFmKCUJ3WhvU+ibNUhaUOyKy1oCY7ELaQ16c7OhyNbe3kIDHaUEWUOafOox3Tm7g75avoS2GASl+8cnUVN2MyBze49+YoI+3OhHKomU7F+bT0euPqC8vET6cdUS+mzdPophtav2zlna8dVyWrLlvL7gzrt/nCY1lbP23eg9oYEni9203TTUXiheW9PsKP0oKDH4ddJIpeQw7DtKe7iR/FQSpu/XaP6Rq/QgL48Sf1xFSz5bR/uEDjkcDofD4XD+AZTvRdmsq9g69lX0+zIdAzbuxdJXNcYDYijRYXA/1JcRHp34DgfuXMD3P1xGrtQBrw/qBdu83xAd9xA6iRWsH5/D1pAQfP1jKtS2UugexOD81cL3AywatUX76oLYMtSt6wgpqyFzs8p4cVhaA169OqOBxTks82+Dhg6O6LbyEnKFa7Jznng1QeARrly7Ba1Ejld6vo6aQjdSR/i+5gG54QSgHLI+iUTRGr69a+nfHZE6vg7f1gpI8hJx6VIGanj1QucGFji3zB9tGjrAsdtKXMplFXZuNnKYoFU69oQ3U/fdH2ehR2MHVHcbgJVR2ajRphOa2QhD9UKvzg1gcW4Z/Ns0hINjN6w0NIBsoYEnyPstGnEPdZBYWePxua0ICfkaP6aqYSvV4UHMeVxVdURPQ4eY1aMxHKq7YcDKKGTXaINOQoccDofD4XA4/wDMLnZ198Ix//UuGHXQHu//cAzBg+qxctN8FF6D0L+RHPTXCez8dCP2skLMomZv/KtHVdZ4NrKEgowe4+KeL7By5Uqs/GI74q2bwb1FHVjpCn9aQaKyhKXE8G+ZzPAOcclSzoj2Mlb27Qj/qZ/jh2syNO0zAe/3c9PLLZEaGykK60enE+Rg/y3yi2wKhRyS/NPLIWsJhBcXCrqVQS4TNgg6bTYuruyLjv5T8fkP1yBr2gcT3u9neHdaIoVwloXbeGw/thmzR/ZAy5oKpF2PxIH1sxHQ6TUE/ZrDhroSfTv6Y+rnP+CarCn6THgf/QwNoNShZmfpi2h6fBF7vmBjEH5tYns8rJu5o0UdK1bMu2H89mPYPHskerSsCUXadUQeWI/ZAZ3wWtCv4GsAORwOh8Ph/BMwr9jNjMRi/35YmtwLG04cxJwuDuZXyfnIPDBoQHPIkYawlesQm2uBOn0G41XhhwFkLqjvpGBlmRrtPzyC89HRiD67CdMHDcG/x78D/xZFf5aMFYzGf5Ugv5I0Fqra+L3YduoB4DAEm6LPYG/IEvyrsdCPQCntSDWo52oPC+ThStR5ZOp3ZiIy8hLy8mvfcslaHMqLwemfjcu7stl1l3NBFg5wdb6HH7adwgM4YMimaJzZG4Il/2oMhVFAiUSLWz99i2/DrqPm8M2IunUPSXEHMbNDFSA9BkfD/8S1vdtgGOomRJ/Zi5Al/0LjwgYM/18EmUt9OAnH1e3x4ZHziGbjOLtpOgYN+TfGv+OPpnd/wrffhuF6zeHYHHUL95LicHBmB1RBOmKOhiPpKf60G4fD4XA4HM6zwoyaNQ/Rn7yFoAhrdBvQGn8d3YivvvrK8Anej0tZhnOuHgrG2l3ncL/MIkiG5v/qj1YyIDeXFXkyV/Qb7A39nzaQOqDPUF9UlzzCgen+GPvxJ5gTOAz/+XAmPtwQjVwzHyFLraron/pqbx7Hhk++wA8pVWEtl4BSj+LL2YuxZPogjPzS8BrD48wMlBRVCe+Agagv1+FGyDgMmroEiyb3x+gN16HLrxcrI6v2Jr4Z2wdvzV+Eaf8aja9+00JefwACfKrBxloOCaXi6JezsXgJKzpHfml4jeFxJjKEzuN3Yfb0WXhn2ECMn/8Vtu07hIgbTPkWNdG0eQ3Y2FhDLiGkHv0SsxcvYcX3SHxpaACZGSVHKnXog6G+1SF5dADT/cfi40/mIHDYf/DhzA+xITqX3ZTEY9fs6Zj1zjAMHD8fX23bh0MRN5DFbgVqNm0Oh3Lf7XA4HA6Hw+H8DRhe3S2kxAK17LM0o5lMeK5Z8qN4jb5KFpZbpdGmPkqSt55LMcLCsLLIu0pLOiiJlW4kazyVThddIaa9TYc+6kZ1VaxiE9qWWJBN80AKuSQsnipcoKbovpr069NIS3dWdycFKxGt/7Vdfw5lnaHZntb6xWSQVKU3v71F4XO8yV4mtCkhC00rGjVrJDWXg+SvlCXrQzrzSW9y1sshIVm1NvTW7BH6hW/5v8YgJmsJ8heoyb1o8L89SCM1tK10ep2WnjYs9noYPoe87WV63UgsNNRq1Cwa2VzOrnmF5gqCam/RgRldqU5+n8J5aid6bc5RShH08TCc5njbk0z45Qgmj6bVKJo1sjnJIadX5sZQbolfYxCGcYg+6laXVMZfm5BY2FDzwBAyDENLtw7MoK51VHqZDONUk9Nrc+iovkMOh8PhcDicF5+Sfy6Y8/TJ3Ix+diOwF33xzb3d8LtzHhdTLNHAoxkcn9tf7X2IjX6OGHPQAv1C7+K7AEvjfg6Hw+FwOJyXF/5l9PNGYgHb+m3Qqf3zK3R19/ZjzoA3MP9YDkhaHTUcjH8chMPhcDgcDuclhxe7zwUJpBYWsLAw/LLC8yb33A/YuPcnJGRZoHqH/yCwg9J4hMPhcDgcDuflhr/G8L9A3kPcuByPu9JaaNykFqrwWxwOh8PhcDj/I/Bil8PhcDgcDofz0sKf8XE4HA6Hw+FwXlp4scvhcDgcDofDeWnhxS6Hw+FwOBwO56WFF7scDofD4XA4nJcWXuxyOBwOh8PhcF5aeLHL4XA4HA6Hw3lp4cUuh8PhcDgcDuelhRe7HA6Hw+FwOJyXFl7scjgcDofD4XBeWnixy+FwOBwOh8N5aeHFLofD4XA4HA7npYUXuxwOh8PhcDiclxZe7HI4HA6Hw+FwXlp4scvhcDgcDofDeWnhxS6Hw+FwOBwO56WFF7scDofD4XA4nJcWXuxyOBwOh8PhcF5ankuxq72xD4umfIzd8VrjnkJyfg3B9ClfIvyhcQeH87eSiTNrp2LW1ovGbdNkJ8bi8j2dcYtTGo9OrcLUj3cZt15cXgxbPsKpVVPx8a5r+q3MM2sxddZW/b+fK9rr2LtwKlYev2fc8U8kHT9/NRVztl02bj9ndHdx7LP3MXnWFsTlGPeZQ3YiYi/fw7P3RC1u7FuE96euxLGUp9+b9vpeLGRtH/+n50cWC3sWvI9pX5zAXbOHUr555GnxNHSeF70JM6Z8jhP3zW0jG4mxl/G3m1kkbp5PsXv7J3zzxSac+DPPuKeQvKv7seqLXTj/19+tKQ5HIAeJvxzCjxeSjdtlo73+Ffp5jsDWRO67ZaNDevRurAo5btx+MXlhbKlLR/TuVQg5flO/mZP4Cw79eEH/7+eKNgnhX6/CznP/5KcQ2bhx9hCOxKQYt58vusRtWDBrDYI/nYnPjqQb94rACquv+nlixNbEZ1/sZp3GymmLcBTuaO3w9EsBbVI4vl61E+ceknHPP5PMU59i2tITsPBoDXuz1WT+PPI0eRo6z7l6EKtZTfbrI3Pa0OL6V/3gOWIr/tbUaUbc8NcYOJxiaDBoQxzOLulm3C4bSk/B3XRe6L4MvKi21AzagLizS4xbnPJRDQGb4nB6YWfj9vNEi6vfbsFZl3/j3R4Z2LPhe5j18JTSkXI3/Tk81WUS3kyB7eC12BLUBTbGfZwn0eLPu9UwdG0o5nWqatxnDubPI/9sCOkpd/G3p04z4ubFKnYffY93vIdh2ZbFGNjKEZZyJewa+WLGvkTmcgZ0KSexPLAzGjlYQW4hg6qaG7q9HYrL2cYTykKXjBNLA+BV1xoKmQr2jXti8reXkWU8/Oj7d+A9bDFC5vZDs+oqKKzqoP1b3+JyXCje8nZGVYUCtm69sSD8QeH5QxZhw5zecLNVQqlxhfeYYJx7pD8M3N+F8d4BmDlrAJrYWcHOYxqOZwpinMDSAC/UtVZAprJH456T8e3lAilw9stAdGxoDyvWn42TJwYGheGO0YIVHbuorOwu9Pq+2fD3qIUqchnUDk3gO3krLjF59Tw6iy8DO6KhvRUUChs4eQ5EUNidAscyPSaGiO5LRZeC7eM6os+SSCadkbwYfNq/I0Z/86d+02CzZdiyeCBaOVpCrrRDI98Z2JdY8nWZ4pjS8yN8/04H9Jgbbjjz7JcI7NgQ9lYKKGyc4DkwCGHsRF1SKMaNWIcr2fEIGdYRgRsT2Nk6JJ9YigCvurBWMPvYN0bPycyHCp1M79+LQ+aiX7PqUCmsUKf9W0xXcQh9yxvOVVkftm7ovSAcD/Sy6JBycjkCOzeCg5UcFkx31dy64e3QyzBtcmEM3hiyaAPm9HaDrVIJjas3xgSfY0eMMP2eXB6Izo0cYCW3YHarBrdubyPU6Ez3d42Hd8BMzBrQBHZWdvCYdlz0GvOo2Jge7p+CLj6Tsc8QfgbS/4sZ3brgPf1O07o35Stl2bJiumfRdH0fZvt7oFYVOWRqBzTxnYythcGkt82wZVuweGArOFrKobRrBN8Z+1Ca2wpyd+gxN39DPD+KxWJZZMZh88RX4WbHcp9NfXSfeQQpRR/sVCSGGaK5R9SnKpMT72PX+A7wnf+z/lzBpqbj03SeKxd5Udjy7QU49RqKyQE9YXEkBFsTRPKSLgmh40Zg3ZVsxIcMQ8fAjUi4W9o8Yso3H2L/lC7wmbwPxUNlBrp1ec8QP0Zbtu/6b8wP+je6uD9hywrqITNuMya+6gY7FbNT/e6YeSSFlUKFVNQ3y8rBgj1Tto9Dxz5LEFk4SSDm0/7oOPob43YZ6GNpCBZtmIPebrZQKjVw9R6D4ELHNOq4KbxHBuHjYR6o+WT8s5j5ZkI3Q8xUYfXCmFVYNq4TBn4exw4+MY+IzVUVzK3PSueFmMpXOiSFjsOIdVeQHR+CYR0DsVHv46bjrLS5RXwuN9FmaXFTWqjRcyD7zFRqrHClCceyjHsKydjSn6wUnenTG1qi1GDyVamoiuurNHPzCYqM2EdBvrVIXnMk7U0Tzk6lHQGOpGo4mD4/HEmxsRG07xN/cpFryH/zPX17pZNLsUt9SGPbmsauPkgRUafpuwV9ydWyAY07+EB/RmqwLynlanLuOZd2n46i8NUDyVluTdWc2tB/1obRLxG7aVoHDanaLy48X6Gi6q1G01dHTtPJrTOpq6OcnP69hwRJtHdWU3eFlCzdx9LmU6do545wSsmOpaU+GrJtPZZWH4ygqNPf0YK+rmTZYBwJYuT+8gG1sGpMgcHHKCruPB1e7k9Oijo05mC60GMFxy4ua8ap6dTC0oZajf6CDpyOoLCNk6mjvYJcRu2hFG0u/fJBC7JqHEjBx6Io7vxhWu7vRIo6Y0gvVq7pMZmj+1LR3qTPu6rJZfxRKvCa7J/oPTc1dVwar98UxqVSVSHXV2fS5hORFLEviHxryanmyL3642UhpudgXxU5BLI2cn+hD1pYUePAYDoWFUfnDy8nfycF1RlzkNLTYmhPkKD/utR3TjDtiX7AVLGUfDS21HrsajoYEUWnv1tAfV0tqcG4g6QfqeDfSjmpnXvS3N2nKSp8NQ10lpN1NSdq85+1FPZLBO2e1oE0qva0+EoeO38HBTiqqOHgz+lwZCzFsnj4xN+F5Bp/Mm1yYQxKUqiqM5t+RUdOn6StM7uSo9yJ/r3HcGHqjgByVDWkwZ8fpsjYWKa7T8jfRU4a/83MJ7R0Z3V3UkgtyX3sZjp1aiftCE8RuaYstHTz866kdhlv2KzgmLR3NlFfW1vm66nGPUQPdgwhB40frb+tFdW9SV8pxZYV1n3GKZrewpJsWKx9ceA0RYRtpMkd7UnhMor2pLAcZ/QvVRVXenXmZjoRyeI4yJdqyWvSSCHJFfF7Ab3cDoH6f+v9x1R+FI3FskinY++6kbJ6J3r/mxN05kQoTe/iSDKJ3BhrFYxhhljuEfOpSuVE7R1a3V1FNUcfEEQR8RGRPFdOsk6+Sw1UrWh2VC7zr/00uraSWs2OYr2YIo1i9gTpx1+37xwK3hNN90qbR1JM+SaL3U19ydaW/bsgVB7QjiEOpPFbT7dZPjdtywrqIf0YveumpOqd3qdvTpyhE6HTqYujjCTyjrQ0nuWyivqmqRxcJLccLZwk6Kf33Ejdcalxuwz0uVhBquqtaPRXR+j0ya00s6sjyZ3+TfoUKRr/aRT2jjFmvj5OEeHbabZvXZYzZdRkWoTQQOE8ImyJzFUVyq3PSOcZ2wZSVYU3LfuDtSGSr9Ji9lCQoJe6fWlO8B4SUqfpOCtjbhHRj+k2S8ZNacN78Ypd5oA+K64zlRjIPjGR6qvaUNAlpnhtMp3dupJCTqYUHKfscJrUUEVtgi6RYJpSyQqjt5xV1G7RlSLnpFLoADuy7hNCKcKWPikbnUQg6wiNc5KT87gj9Fi/Q0tJX75Kqpqj9Vv685VtaeHF/BbZ8fV+pLF+gzYkaw3FrlJF3VfdKpA1K+wtcla1o0VCIZNPaigNsLOmPiEp9Hh3ANlV9aag8w8N1+Ql0I9rV9HeOGESrODYGaZlfUQ7h1QjdftFdLmgEXZ8Yx/SWHajL25k0O4AO6rqHUTnHxp6zkv4kdau2kuCWGJjMkf3pWJmsatU+NCK6/kayaYTE+uTqk2Qcbt0TOq5aJJ6vJsC7KqSd9B5Mgw9jxJ+XEur9sax8GIBGDOXWqtb0kfnhSksi8LeciZVu0VUXBUDyM66DwmqyPdvQX7DKVl0ZJwTyZ3H0RGDk5E26Ut6VVWTRu9/zEx+lrauDKGT+iLJQHb4JGqYHw9lYih2lW0XUqHJk2i9n4as39hAyVotJZ/dSitDTrKbGeNxprvwSQ31uruUZ0hISlV3WnUr/wSxa4y7SlC82K34mO7T9sFswu6zke7oL71HW96sRtXf3MJGK657MV8pbsuKy5m2cwhVU7enRYXBxFS/kfpoLKnbFzeYNgy2UfisoEJRTtDE+oY4Fi12TeRH0Vgsi7TdNMxeTT7L8/2SiXFrLfWyNvhqhWOYYTr35Ir6VKVyYrFiV8xHHpvMc+UjnfaPrlMkpz6m4+/UJ0W9t+lohv6EssmNobmt1dTyo/P6wri0eUTUN+9vp8EOGuqz8Y7hmntb6M1q1enNLaz6FbVlxfSQtnsY2at9aHn+/Ml6vrW2F1kb59QK+6bJHFzZYldJbRdeLPT5pPXkp7GmNzYkU66Yjh98SwOZXD1WCTFt5N52GuIgL7PYLTv/VCy3Piudlyx2TeQr5qUxc1uTuuVHZEidYnFW2twiph8z5tYn4qY0ns9rDBIJJNBBV9r7zkLBzY6yUwxINKjXwLHg/QqpRoOqkjzk5LCLpQ7wGjQcno92Y9H08RjRvzs8m/bFqngtdDpdscf3RdEmRSP2dh6urOkP9+bN0Vz/6Yy5pzLx+NpFxBu/ApFY14dbbQvjhiWqqGWo6VwXcv0OKSwt1ZBoCxfZWbj6oEsD4/nsuEM7LzTIuYK4a8ZzJLZwdrYzjkWLpOhY3M67gjX93Y0ysE/nuTiV+RjXLsZD2nUEhjv9ilmetVDHvQeGz/geaV4D0btZlQqPPZ8yZb30G2KvZKBue2/Uyz8sHPfpiKbaq4i5ZIGuI4bD6ddZ8KxVB+49hmPG92nwGtgbzaqIj+mxmbqvKBJNPTRwLPAWaDRVIckz3ajKlJ6LouqKEcOd8OssT9Sq444ew2fg+zQvDOzdDE+cKTgZomNvI+/KGvR3zx9nc3SeewqZj6/hYqGTob5bbRhULYFlFTVkNZ1R1+BkkFpaQi3RIk8rmNwLg4Z74tHuRZg+fgT6d/dE076rEK9lsVRqMBXFAq4+XVBocge082qAnCtxuJbH7Os1CMM9H2H3oukYP6I/uns2Rd9V8dAyX8pvWmLrDGe7Qt2ac40YFR+TLV4P6A2rk7vwQzI7N+UH7DiqQC+2r5qZui+Pr1RMzjz8EXsFGXXbw7swmFhbPujYVIurMZeQq98jgaZeAxSKooGmqgR5OWYEQ5n5MU80FstqPS8hDpfTasPDs67RLwWZO6BdQ5n+3+bmz7IoO0/qRH3KZKyWJyeK+ojURJ4ztmEuDw4gdF8yatYGTn8TgpCQbxFv5QrrxJ1Yf6DoywVmUmweEYYt4pu2ryOgtxVO7voByUwPKT/swFFFL7avmhm2VFVAD3lIiLuMtNoe8KxbxM4d2sHgQuLzRJkuVJ4cXF4sXOHTpUERn28HrwY5uBJ3DToRHef9FoPLmc5o41WrwC7QtEe7ZsZEXgpl55+K5NZnqPMSlCNfmZuLi80tBsrUj7lzqwiGbPaMkbIiUY0MpP31pNV0+OvRX8iTqGFpxQYpHJZYwCLfdkby62Dh3Yydo7wxfPtjNPXxQesWPhg54A2c+XA6rhpPKZXsbGZYa7QOmIrAJsUbl1ZtjPpGLUjkcmNhW4iEyVMWEhUbV1F7WchY4BALBuO2MBZZgfRMDGYU69YImBqI4mJIUbVxfchsHfDZmSj02rYFuw/8iGPrp2HLymXotyYcO0eq8F1Fxm6kbFlzINTvMnlxV5Cw4zLhBkVLsO39Gc5E9cK2Lbtx4MdjWD9tC1Yu64c14dvQQWxM2cfN0n1ZFPcYIfCL75EwZyneaqG+y8S2Z9l6HlV0qYYten52BlG9tmHL7gP48dh6TNuyEsv6rUH4zlFwMp5lIBsGVQRgamCT4jJJq6JxoZOBuVlx2J1e8TEY0CXtxCjv4dj+uCl8fFqjhc9IDHjjDD6cbpbFoVKrmRUKsZCxXojpkP0nicnvPXw7Hjf1gU/rFvAZOQBvnPkQRZsWdFvovuZdI0ZlxlSlx1D0teuPXXtvoZfFDpys6odvXxPsdVtc93GG8ZjrKxWVM8cQTMUTK8sDMrZDp9Ma/ZnZu8wkJ4KJ/CiaX4xbJWB3Vlp2jiBjARIVVEpjy2bmz7IoO/eY4VOmYrVcOVE8Pm0dyspzzBeK3LyYRoc734fi8CMbVL+2DZ//ZtzNxlulyn0c2LgDfw74P9Qtqg8xnphHxH2zCnoM7Qu7/ruw91YvWOw4iap+38IQKuK2tO1Zfj3kaYW7c2HOKESiUqHQhSromyZz8EgohVOeKCuEYvSJXaXDfFxd3DFhSJEsQ5oV/wYfNpey80/Fcuuz0/mTlCdfmTEPRht0UcSl9ZStHzPnVhHKE3IVRla3AZxVjxAdGffE3cRfOB1xEVSrPhpaGXeZQHdzJ1ZvT0W3lZE4999tWLdsNib41UCu8LNlJpzOoqYrnCwzkGnTHgHDh2O4/jMUPT3qo1HLBnjiBsNstIlXcKXIL8qkx8XhD4t6aGR8IlIcC9R0dYJlRiZs2gcYZWCfoT3hUb8RWjbQ4EHkNqzcdQevjJ6H4D1nEH8rBis6p+Ng6AEkJVZs7PmUKWuTenB1kuEm2zYsijKQGROL31AHLs5/IXLbSuy68wpGzwvGnjPxuBWzAp3TDyL0wF2RMdlBXmHdM8e3IORkPy5MXDl3cCdVfKym0eGeCT3nL3wR0N2LxLaVu3DnldGYF7wHZ+JvIWZFZ6QfDMUB4cSCryMYFjWZHi2RkWmD9gH54xyOoT09UL9RSzQot5PpcHPnamxP7YaVkefw323rsGz2BPjVyIV5Jtci8coVFJo8HXFxf8CiXiM0lN7EztXbkdptJSLP/Rfb1i3D7Al+qJH7F+tV+E8p6CpwTQkqOSaVN4b2r4WIPV9j486fUL3fUHQV8sbT0H1RW1ZYThmcWTzIbsYhrngwIZYVPXVcXEvcTD89xPJL4ZPBJ5E5N4Sr8jYuXbxfaMfsq7h2w/ANVWXzZ5m5p/4dEZ8yHavlyoliPqJ5YCLP3TE2YgbaROwIPQZdj0UIj4pGdHT+5zzCZnVE7vEQbL5S2uqZfIRvQU1hnm+qvIeif60I7Pl6I3b+VB39hnaFIVREbIl7FdAD8/uGrlDevoSLRX6bNfvqNRhcqOK+KZaDhSKMcrLxuHCSwJ07qUxLZsBsdaW4YyLuDwvUa1Qfd0R0LGvYAk3UN3AussjCvb8iEXnZ8N1NuahQbn12Oi8vxVLnU58HGWa1KRY3z6nYhfVrGNy7Oi6tDMSIRdtwLPICos8cxqaPAvDe9gdo/K8haKe/RRNBeGIiycHdhAQ8ZPbV3vsVGybOww8PmZGzjUv9SsPGF8P87XHu07ex8Ogtdp+gxd2IFRj5Whf0CzqFDONp5YUe7MfC6TtxLVOLjKvbMWXeXkh8h6NfjdLVauM7DP725/Dp2wtx9FY2G8BdRKwYide69EPQqceQ/L4HCyZMxPyDiUxGduf21y38eS8Hdk5OsFFUcOxGypbVHn7DesMybCEmBEfiPguUzN+/w/Q5O5HRbjDebCLD73sWYMLE+TiYqJcKf936E/dy7ODkZCMyJqbZiupeqoGzsy1Sj+/AvgTWbnYiDs9fgUNm/fafKaSm9VzEdFLJ79izYAImzj8Iw9D/wq0/7yHHzglO7ESJQgkFpePhQyG72MB3mD/sz32KtxcehUEVEVgx8jV06RcEQRXlRXjaLsm5i4SEhyzhaXHv1w2YOO8HPBTudEVNTniwfyGm77yGTG0Grm6fgnl7JfAd3g81pDLI2W11zt0EJBicCb9umIh5BmcqY4V9Ra4pSeXGpIDX0IFwPb0My36uiwEB7Q1Pdp6C7ovbsuJyVvMbht6WYVg4IRiRhmDCd9PnYGdGOwx+sxGbgp4dorFYFravY+QAWxxb/C42XngEbdYN/PDRXOy4bZxEK5k/y849ChGfEonVcuVEER95LDGZ54Ttq4eCsXbXOZj6rX3t1a3YekaOVwf1ZXFm3KnHAq6D2c2Z8jw2h5x94qFPESQKKBWE9IcPWY+lY5ZvKrwwdKArTi9bhp/rDkBAe+MEK2ZLqZgeSsf29ZEYYHsMi9/diAuPtMi68QM+mrsDhS5UMd80nYNl0Dg7wzb1OHbsSxBGj8TD87Hi0CPznuzSA+xfOB07r2VCm3EV26fMw16JL4b3qwGFmI41fhg3rBZOzRuGaZuO4fTJHfh4+HvYnkzFiz+zqFhufVY6Lx8SKJQKUPpDGFLn058HzWrTjLh5LgvUBLSpJ2mxfxPSyCSCH+o/EmVN6jB+C13Of7lceGlcXZNGHzCu1mHkRs8mD7UHzY7OZY3co7CZbclOJiWFVRVSKezIfehCmuGrIU3fEEoufN+5BNrUcFroV4+spOxalZJkEhXV6T6bwowXCS9Iq2uOpoKus3+mKY3U1H7xbwUvsD/c6Edq42IR/cIR27b0uk9NUsgVJJcqqXaXGXQgydCefmGBug6NPVx0UZ6WUsMXkl89K5JKFaRSykiiqkPdZ4cZZM+Npy2jW5LGwoJUVa1JLZeTvdcE2pXAJKjE2MVkFVYth815jZzUErJQWZJSpqLaPpNo93XDq9658VtodEsNWVioqKq1muRye/KasIsEsUTHJJwhovuyyI5bQ/3rqUnK5LFkcrn4zaLxnayKLVArZjPKpejZHqT2mG3cLgNTei62sCCX4reMppYaC6aXqmStlpPc3osm7Eow+MTj4zTJTUkWyqrUYkq4MFAKX+hH9aykJFWomB4lpKrTnWaHJRsWMZTw72z6eUojUrdfTL8VOhn5qR0ocO9jZvIwmtnWjmRMr1ZVVKSwc6ehC2eQr0ZDfUOMbZaKYQy2bV8nn5rM3go5SZW1qcuMA2QwuZbuhc2ktnYyJqcVVVEpyM59KC2c4UsaTV8KSc7VLyJQ1xlLhe4rdk1Z0jyxQK3CYzKSd4kWtlWSvPUculB0JYKI7kV95QlbVlxOLd0Jm0OvOalJwuLFksWDqrYPTdp93bhwQrCNWr9oqlCUaJrtoSaP2dHscpEFaqbyI+tbLBbLQpt6gub1qEMqqZzlCDlVaxdI/s0tC2KtojFsOveY4VOVyYm5xX+NQcxHTOe5NNrUR/C7uRRT1O+KkUuRH7QgefVBtP2+cVcx7tG3/6pOstqj6Ie/jLtK8JiOT3IjpYWSqraYQicSS84j5vpm3qWF1FYpp9ZzLhh9z4CYLU3roSyY752YRz3qqEgq2FlejdoF+lNzy/xF3xX1TZEcnB1Ha/rXI7WUxZklizcXP5o1vhNZmbNATWVLbV/3oZosPyrkUlLW7kIzDiTp9WeWjjNiadO4zlRPw/yiSm3yGjaR+rMc0uLDc0IHJRaolZ1/Kp5bn4XOSy5QM5GvGI+PTyI3pQUpq7agKeHZrFtTcWZYoFZ8bhHTD0Nsbn0ibgQxnkQi/I++6n1OZKVcQezVO+wO0gbOTVvA1db8N0cM6JB24wIu3MiCpoE7mteyNO43By0eJcQgLjEdytrN0LK+HRTGI+Xl3rpeqDunNnbFf4bmV2NwW1kP7k0doTIeN4n2ERJi4pCYrkTtZi1R366oFDqk37qI2N8fQmrvBvcmNYq0WbGxmytr3v14RF9KBhwbo2WDasV1o0vHrYux+P2hFPZu7mhS44mrTY5JoIK6Z3fXV6Ou4kHVhvBoWsP4JO9pYErPxdGl38LF2N/xUGoPN/cmKDp0XVoCoi78CV3tlmjjanjyoX2UgJi4RKQra6NZy/oooYryoEvDjQsXcCNLgwbuzWGeye9hXa+6mFN7F+I/a46rMbehrOeOpo7FR6hLu4ELF24gS9MA7s1rwZymK3JNCSo0JvOojO5L2LIycubdR3z0JSTDEY1bNkC1yvhAeRGNxbLIQvLlC4jPsEezV+pBU+ILqvLHsDm5R9ynKpgTdbex6rV6WOT6HW4yOfIx6SNiee55wPwuIeoC/tTVRsvWrsW+bSqg0jEkYsuK6iErGZcvxCPDvhleqacp+dVxBX3TVA4WXl24ezUKVx9URUOPpqhhziRxbx161Z2D2rvi8Vnzq4i5rUQ996YoliJN6ViXjLiI27Bp2Qp181fKZR/DhMa9EffuVZyYVHxFhzlUOLc+I52bD4vBhChc+FOH2i1bw9XosE91HjRiOnZNx81zL3ZfFgqS+B/r8frfkA/Lwz9JVs7ToLDY/WP962UW8RzOs+ZvzT3ZEZj+Shf84HcSl5a0Ne7kcBgFxe4fWF8Rx8yLwizP9tjSYiOOrA1AfeU9RH4+An0+SMJ/forEx63L+xCP86wp7Z6RYwYSiRQW0iI/mfYC80+SlfM0YLaWWkDKDM5Nzvk7+btyT/aJd9HI1gfLb7bEv/q3Mu7lcIwwh5RaSNn/VdAxZe6YsPg9OB8fBTeNJapYOaLDxzfQZdl6TOOF7gsJf7LL4XA4nJeLzDu4cvUWJLWbo5HD03v5icMpRt4DJFz6Dcm51nBp0hg1yv06Ced5wYtdDofD4XA4HM5LC3+NgcPhcDgcDofz0sKLXQ6Hw+FwOBzOSwsvdjkcDofD4XA4Ly0vSLGrReKBeRjW0weduo3C+stl/g2M/y0encKqqR9j1zVTf17yKaO9gX2LpuDj3fHMKk+Q8ytCpk/Bl+EPjTteRB7h1Kqp+HjXNeN2xclOjMXle8Y/R5N5BmunzsLWi/8838w8sxZTZ201bv3T0eL63oWYuvK4cbuyZCMx9jIMZs7EmbVTMWvrRf2Rfwpl2lcfy+8zXR1DitGNnz9PMbfrY3AOtr0o88OLJs+TaK9j78KpWHn8nnHHi0V58qv2+l4snLoSx/PPf0pof/8O89+bhEmThM9kTH5vCqbPWoAvd55FkvAX2144nnb+qxgvds4pnRej2M3cj1mjFuAnWQf49+uBFo78gbOALj0au1eF4PjN55hMtbfx0zdfYNOJP0v+2b28q9i/6gvsOi/8ze4XFF06onevQsjxm8YdFUN7/Sv08xyBrYnGkeYk4pdDP+JC8nO88XhK5CT+gkM/XjBu/dPRIin8a6zaec64XRnYxPFVP3iO2AqDmXOQ+Msh/HghWX/0n0JZ9s06vRLTFoaBWr4Ch78rpT7N3P44DntWrUPY9RekuHzR5HkSbRLCv16FnedevIcT5c2v2qRwfL1qJ849fLrr6fP+PIFNX36No7+l4t69VKSmJOH38wfx2X86oWnb/8OOhBct3z/N/FdxXuicUwYvhDi6tCQkpdVEr8nz8P7EIWhry4tdzt8LpafgbnqRkl4zCBvizmJJt3/ezxhpBm1A3Nklxi1OIYT0lLsoNLMGgzbE4eySbsbtfwal21eLmym2GLQmFEFdNcZ9zx+e2zml8ULlV0kN+H64EZs3b8bm0K3YdeBnXDz/Dfqkb8L/jVmN+H/e841nzoucc8riOWWeHFzfNxv+HrVQRS6D2qEJfCdvxaVMdmd1YQXefH0pInOS8f2EDmj/zvdI2DUe3gEzMWtAE9hZ2cFjmvDIXofkE0sR4FUX1goZVPaN0XPyt7icZeiBtYTEg/MxyMsZGqUcavtmeOOj/Ug0Oqou+QSWBnihrrUCMpU9GvecjG8LLn6E79/xxrBlW7B4YCs4WsqhtGsE3xn7Cq4vjYf7p6CLz2Tse2DcIZD+X8zo1gXv7buHlO3j0LHPEjY24zEmY8yn/dFx9DfGbTG5niDnOvbN9odHrSqQy9RwaOKLyVsvgalRz6OzXyKwY0PYWymgsHGC58AghN0pklCeMo++fwfew5Zhy+KBaOVoCbnSDo18Z2CfaaVhShcfTC6uNPx3Rjd0eW8fdCnbMa5jHywpVBryYj5F/46j8c2fxrHoknFiaQC86lpDIVPBvnFPTP72MkrXWtm+Vxa6pFCMG7EOV7LjETKsIwI3JgiDxTsdemBuuEGuSvtTucZQFNPjuV9K7Ah26tBjruEERmbcN5jQzQ12KgWq1GmPMauWYVyngfg8zvCE6lnESsaxj9C9wyh8nf8kRyDnLBb5eeOt7aaepGYibvNEvOpmB5XCBvW7z8SRlOJPd8TkPftlIDo2tIeVQgEbJ08MDArDHZ0OSaHjMGLdFWTHh2BYx0BsTLjPxtYBPeaGG640w79zru/DbH8P1Koih0ztgCa+k7HVlHOVig4pJ5cjsHMjOFjJYcH8oZpbN7wdehnCN6mm88yDEvY1yOQJn8CPsWDMq/AoKpPgx97DsGzLYgxs5QhLuRJ2jXwxY18im6rKpiL2Ky23P6pkHhduUB5ELMGb7jWgVgiy98CU7xIKZNelnMTywM5o5GAFuQVrv5obur0dissmvpKuuG8KmJbHtH/cx67x3giYOQsDmtjBys4D046nm/QFk2TGYfPEV+Fmp2L5vz66zzyCYqFSwZyjj4Mhi7BhTm+42Sqh1LjCe0wwzj0ynqBLwcnlgejcyAFWcgsWg9Xg1u1thOYr/f4ujPcOwMxZA9DEzgq2zXujzzDT+TUzbjMmvmrIUTb1u2PmkRSm6UIqYufyoKw3BJ8G9YM8fD02RZuTF02Ql4iD8wfBy1kDpVwN+2Zv4KP9xngT051o/jOdO8rmxc85pusZsTxSCsLv7D5rMk5NpxaWNtRq9Bd04HQEhW2cTB3tFeQyag/dSTpD2z4dQc0U9tR9+le04dBFurG6OymkluQ+djOdOrWTdoSnUG7sUvLR2FLrsavpYEQUnf5uAfV1taQG4w7SA9ZHdtR88qpiQx5j1tCRyHN0LHgUtbDSUM9VfxC7mJb6aMi29VhafTCCok5/Rwv6upJlg3F0ULiYUinYV0WqKq706szNdCIygvYF+VIteU0auTdNOKFUtHc2UV9bW/LfnGrcQ/RgxxBy0PjR+tu5dPPzrqR2GU9Hs4wHKZt+es+N1B2XGjZF5NLe/Jy6ql1ovL6BDDo1vQVZ2rSi0V8coNMRYbRxckeyV7jQqD0ppM39hT5oYUWNA4PpWFQcnT+8nPydFFRnzEFKN/RmHtlnaGpjBblOOEYFYueTsYX6Wymo86c3SMs2U4N9SaWqQq6vzqTNJyIpYl8Q+daSU82Rew3nl4b2Dm3qa0u2/puZ1o082EFDHDTkt/72E2M2kP3Te+Sm7khL4/PYVi7FLvUhjW1rGrv6IEVEnabvFvQlV8sGNM6gNPq8q5pcxh/VX2vK91KEQZRGWgztCfInF3ld6jsnmPZEs3ZTg8lX5UCBex8/BX8SGYMJTI9HS3dKiR29nRwCDQ2khdE7bkqq3ul9+vp4BIVvn02+dRUklTWhaRHZzyxW6P52GlRdTR2WXCHBigJZx9+h+lW60md/5O8pSfqxd8lNWZ06vf8NnThzgkKndyFHmYTkZsZQ7i8fsDzQmAKDj1FU3Hk6vNyfnBR1aMzBdGbmPRTk70Lyun1pTvAein5gGJtDoMF/Rf074xRNb2FJNq1G0xcHTlNE2Eaa3NGeFC6jaE+ZzlUKqTsowFFFDQd/TocjYyk2Yh99Isil8afN98TyjLa4fcVk0vuxiqq4vkozN5+gSNZXkG8tktccSabMVxH7ae88mdsvU3pl8rggu1JCFjW60LTQkxR17hAt61uX5DVG0B697Km0I8CRVA0H0+eHIyk2lvnmJ0Ica5jumCLLooK+KSqPmC1YLlzdncWepTuN3XyKTu3cQeFXtpn0hbJJp2PvupGyeid6/5sTdOZEKE3v4kgyiZw6Lo1nxyuecwT/UipUVJ2N46sjp+nk1pnU1VFOTv/eQ4JIqTsCyFHVkAZ/fpgiY2NZnHxC/i5y0rAcLxzX3llN3RVSsnQfS5tPnaKd34TQ1x+byK/px+hdY4765sQZOhE6nbo4ykgiz58DKmjnUhDsXE/RiKb8zHLfEwhy91Aq6bWv7piRF8sim6Lme1EVGw8as+YIRZ47RsGjWpCVpietYr4lpjvR/CeSO8rkRc85IvWMWD1YGs+h2E2jnUOqkbr9IrpckDe0lLSxD2ksu9EXN7SkTfqSXlW70oRjQoFjmLCVqu606lb+hJFFYW85k6rdIrpSJPekhg4gO+s+FJKSTScm1idlyw/pXIHPptPRoKE0+suzlBX2Fjmr2tGi4hfTADtr6hOSImywSU5JCp8VdD2/y+wTNLG+itoEXTLuKI37tH2wA2n6bKQ7+uvu0ZY3q1H1N7ewFrWixa6YXMUKv7SdNKSamtovulyQkJniaGMfDVl2+4JuZOymALuq5B10nh7qZcmjhB/X0qq9ccwC5aCcxa5S4UMrCpWmt4OqTZBxu3Tubx/MgqYPbTQoje5teZOqVX+TtrC4Ei12s8LoLWcVtVtUODEJ9gsdYEfWfUJYwVe02BX3vbLIjZlLrdUt6aPzuYYdRZJxpf1JbAzGPSURG09uKbEjiF6YmB58O5DsqvagVUXGfm87S2JyQ7H77GLlL9oTWJOUredSjF6lGfTjOGey8V1DN8s0QxrtHmZPap/lpJ/jBLS3aG0va1KYGUOPdwew8XpT0PmHep+lvAT6ce0q2hsnREUuxcxtTeqWH5HBzCWLXVP+nbZzCFVTt6dFhcZgIbmR+mgsqdsXhhgxB23yWdq6MoROFimQs8MnUUNVGwq6JLRtKs8Y5My3r6hM+gJNQT4rrhfIl31iItUv6KssKmI/oe+iub1yeVwfg0z2Tp/EF8RN9ukp1EjlSfMvsj3aZDq7dSWFnGS503icKZImNTT4Ztmjq9jYxOQRtYW+2FWSqvsqyg9XcV8og7TdNMxeTT7LC2XR3lpLvawVhmK3wjnH4F9KZVtaKOhYD8s56/1IY/0GbUjOpeSzW2llyMkiDw+yKXxSQ32cCCLri12lirqvulVgF1P5NW33MLJX+9DywqCnW2t7kbXCOAdU2M4lMVXsUsY2GmgtZ21eNCMvloE+Nyqp5YfnmFaMpB+loKGj6cuzmSK6E89/FfWXFz7nPDZVz4jlEeOOJ3j2rzHk/YHYKxmo294b9SyM+yCFg09HNNVeRcylXOO+4khsneFsZxRPm4To2NvIu7IG/d2bo3lzw6fz3FPIfHwNF6/dwcVLt2DziheaKQyXAFbo9mEo1r/dGknRsbiddwVr+rsXXNu881ycynyMaxfjYfjiRAJNvQYoWD8h1UBTVYK8nMKv00tii9cDesPq5C78kKyDLuUH7DiqQC+2r5rxjLLRmimXgbw/YnEloy7ae9dDoRod4NOxKbRXY3DJoitGDHfCr7M8UauOO3oMn4Hv07wwsHczVDGebh6Gv2Ov05W2EEC4OWJnFPl74hJNPTQoVBo0mqqQ5JnSGdPa6wHobXUSu35IZv2k4IcdR6HoxfaJK425QjRib+fhypr+cM/XWfPOmHsqE4+vXUR8caVVyPdMY67dyvanco2hKGaOp1jsFCMPv8VcRqZzG3jVKjyuad8OzeTCvyo/trKpih6D/eAQuwvfRuUBGSewff9f6DKoH2qWJqpAXgLiLqehtocn6uaPl/l8h3YNYfjr8+LySruOwHCnXzHLsxbquPfA8BnfI81rIHo3My8qyvbvPPwRewUZddvDu9AYTDwfdGyqxdWYSzDXu6QOXhg03BOPdi/C9PEj0L+7J5r2XYV4Lcsp+jg0N8+YKZNEg3oNHNloDEg1GlSV5CEnp7SYz6cC9nuSSuVxL8Mmk72+W+2CHCi1tkYVSTayHjPZmW94DRoOz0e7sWj6eIzo3x2eTftiVbyW6VFX7Gvw4lRibGXKk2umf0hg6+yM/HAV94XSyUuIw+W02vDwrFsoi0MHtGtojJSK5hwjFq4+6NKgoGU4tPNCg5wriLumg4PXIAz3fITdi6Zj/Ij+6O7ZFH1XxUPLdF4gssQWzs52BT5XNnlIiLuMtNoe8CwMejh0aAfjUISBVdDO5SSX6SZHAktLVbnm6qLo7l/EpVs2eMWrGQpduhs+DF2Pt73UpnWXK5b/hM2K+csLn3NUJuoZsTxShjPn6+wZwiZ3lj9k8uJdSSxkrHOmRG3pg5VYWEBWUFNlI5vJb906AFMDmxQWewLSqmhcn3BGy/qwkLPUUZJsw8UImBqIJsUvRtXG9Y1KkMCC9VmM0hp7gio9hqKvXX/s2nsLvSx24GRVP3z7mg07Yny35InhCY6Uv0tcriIrLnO0zK1kKK5GJrOM7WCBoSVb9P7sDKJ6bcOW3Qfw47H1mLZlJZb1W4PwnaOKFEciSC2hVrN8n/ZXiaSh++sR/sqTQG1pVeC0gp2KN22W0jC0rx3679qLW70ssONkVfh9+xoKtVZCafoiW092NvMoa7QOmIrA4kpjrtAY9Zk6CrVWMd8To9L+ZMYYSse88RSPnVIgIaEZ//0EzzJWLLsGoF/dr7F7WwSm+OzAoeweWN6nRoEvlSQPWhbXUsHHC5BApVIWUaWIvLYO+OxMFHpt24LdB37EsfXTsGXlMvRbE46do5yM55aNKf/OMRjDqBMjEqZ7tkOn05o96eqSdmKU93Bsf9wUPj6t0cJnJAa8cQYfTr9qPMNUnimOWTKx7QqYrwL2e5LK5XE9xrGUQBiYLonZ1BvDtz9GUx8ftG7hg5ED3sCZD6ejUJOlU+GxmZDHPP8QYklWMF5zfKFU8rTs1k9aXBaJCiqlseUK5xwDEpUa6qLKYDJbsBEIxWUSm1+8h2/H46Y+8GndAj4jB+CNMx+imMiCz5lMSoXkGYK+mN4kKhXyh1IZO5eHnLg4XNNWh3cjR2RHm5MXSyGX5TB21EJe2tjFdCee/yrqLy9+zrFFz7LqmW0dRPJI6dYwP09VFJkzXJ1kuMkc50GRCTYzJha/oQ5cXPWPlExjUZO1YYmMTBu0DxiO4cMNn6E9PVC/UUs0qG4PFydr3I+/isL1WHm4vP4tDJ1zCDVdnWCZkQmb9gEF1w4f2hMe9RuhZQNz7jZNoPLG0P61ELHna2zc+ROq9xuKrlaGQ0JBQDnZEB46GMjBnTupxoLOolxyyZxd4SS7ibi4B8brBTIRE/sbUMcFzn9FYtvKXbjzymjMC96DM/G3ELOiM9IPhuJAeRapyeqigbMKj6IjEcccqih/nY7ARaqF+g2NA6wwKngP7Y9aEXvw9cad+Kl6PwwtVBosKAfZhUpDzp07SDUOwaIm04NlBjJt2iMgX2fDh6KnR300atmg4AmJnsr4XpGn18Upn91Ko1xjKEqlY0mGhi2aQH3jHCKL+MRfkZG4rL/9rvzYTKLsgCH96+HGgVAsCz0M9BqC3nbGY6XBxtvQVYnbly7ifoG42bh67QaLbgExeTV4ELkNK3fdwSuj5yF4zxnE34rBis7pOBh6QJ8ryjSzKDI4s75lN+MQV9wYMISkK8zIbAwdbu5cje2p3bAy8hz+u20dls2eAL8aufiLNVtwU2IizxTytGQqg/La70kqlcf3G7fLRndzJ1ZvT0W3lZE4999tWLdsNib41UBuMUWWQWXHVoKK2MJMXygFmXNDuCpv49LF+4XzQ/ZVXLthjJSK5hwj2sQruJJu3GCksxz0h0U9NKp/BztXb0dqt5WIPPdfbFu3DLMn+KFGrvDzlMJ/yqDMwGN6a+gK5e1LuFgY9Gwo12AcSuXsbC66uzi0YTeu1+gFfx/LCudFaTUXOFnfR/zVO4W6yLuM9W8NxZx9v5rWnWj+q6i/vPg5R3fPRD1zt4bpPFKGM1dq7jKPavAb1huWYQsxITgS95mVMn//DtPn7ERGu8F4s9ET5X6p2MB3mD/sz32Ktxcexa1sFnx3I7Bi5Gvo0i8IpzIs0XVwPzhGfIGZX19EGrNW2sWvMXfBJvyaZgMb32Hwtz+HT99eiKOGixGxYiRe69IPQacyjH1UFAW8hg6E6+llWPZzXQwIaA/Dj6dIoXF2hm3qcezYlyA800Di4flYceiR8Y6ejao8clXzw7DelghbOAHBkfeZs2fi9++mY87ODLQb/CaayH7HngUTMHH+QSQKyynz/sKtP+8hx84JTjbMzHlXcSh4LXadu29or0ys8drg3qh+aSUCRyzCtmORuBB9Boc3fYSA97bjQeN/YUi7yv88jMJrKAa6nsayZT+j7oAAtDc2KdU4w9k2Fcd37EMCG0d24mHMX3EIjwqVhmH+9jj36dtYePQW06oWdyNWYORrXdAv6BSKa63ividRKKGgdDx8aMywRai0P5VrDEWpfCxp/MZhWK1TmDdsGjYdO42TOz7GcGbXZJLo77Sfday0GfImGv+xEct+UOD1wT1Q1XikdGzx+sgBsD22GO9uvIBH2izc+OEjzN1xu2DiMC3vY0h+34MFEyZi/sFEpmchLG7hz3s5sHNygo1UAoVSAUp/iFLMLEo1v2HobRmGhROCEWkwBr6bPgc7M9ph8JuNWCmehUv7gxH8fTTyF66XhvCkXpJzFwkJD9m4tLj36wZMnPcDHgpZo2B1cVl5pjjiMlWG8trvSSqXx0URni5JcnA3IQEPmYNo7/2KDRPn4YeHLI8UKrIMKju2klTEFub5QinYvo6RA2xxbPG72HjhEbRZN/DDR3Ox47YxUiqccwzQg/1YOH0nrmVqkXF1O6bM2wuJ73D0q6GAXCZBzt0EJBiUjl83TMQ8g9LL/KUHU/nV9vWRGGB7DIvf3YgLj7TIuvEDPpq7A/lDMcfOeVcPIXjtLpwrUjCXTS4e/HkFFy9eZJ8Y/HJ8J1aM9cPo0Dy8Mf9D+FapRF607IrB/RwR8cVMfH0xjRWSabj49Vws2PQr0myqiehOPP9V1F9e9JwjlZiqZ2xF8oihjRIY3919tmjvUNic18hJLSELlSUpZSqq7TOJdl83vJxe2gI1dZ2xdLjoCiltKoUv9KN6VlKSKlSsDQmp6nSn2WHJhpeetffp1KLe5KK2IIWlmuRSNbn0XkI/65fmaSk1fCH51bMiqVRBKqWMJKo61H12GCXrLxYWpqip5ugD9FjYFMiNptkeavKYHW3cYYK8S7SwrZLkrefQBeP79nqy42hN/3qklspIZakiSxc/mjW+E1nlr6QUkevJxVraO2E05zUnUkssWHtKkqlqk8+k3WRQYy7FbxlNLTUWTMdVyVotJ7m9F03YlWB4YT9tE/VRyqn13BhhyzRM1ycX+1MTDZPH8AUhQaKkmh3G05bLhUYRXlJX1xxNBwqVRtGzPUjtMdu4bYo8urSwLSnlrWlOcaVR3Jr+VE8tZeOzZON0Ib9Z46mTVf5KXEG8cFroV4+spFJSqJgeJCqq0302hRmUVuzXGMR8r0weH6dJbkqyUFalFlPChcEWrhZ+Cv5kcgymMDme0mOn6GICgYzYTTSucz3SMH+oUtuLhk3sT27KFvThOUMbzzRWcuNofhsFyepNoGMFDZiA+eKJeT2ojkpKcgXz6WrtKNC/OVmaGUOUG09bRrckjQWLmarWpJbLyd5rAu1KMPjS4+OT2NgtSFm1BU0JTyqxQM20fzN9h82h15zUJLFg8c36VtX2oUm7r7MzBVJoTU+WF9ovpt/KWIchoL0XRjPb2pGMyW9VRUUKO3caunAG+Wo01DfEmN8Eysgzxe0rIpPgx+qaNLpwUMx8s8lD7UGzo4s0WhbltF/x3C7sqEQeL032uI+ptZr5biSTXXuPwma2JTsZiymrKqRS2JH70IU0w1dDmr4hRv81QXl9U0weMVvoF6ipqc7YwwWLgc32hVLQpp6geT3qkEoqJwXz82rtAsm/uaXx1xiE4xXLOXr/sm1Lr/vUZO0qmE2UVLvLDDqQJFynpXthM6mtnYzZ04qqqBRk5z6UFs7wJY2mL4WwtvUL1NR1aGzRpCSWX0/Mox51VCQV+pNXo3aB/tTcMn+Bmrid0zb10c8tcw0rDstEv0BNeB/DOM9J2NyqsHakRt4BNOf73wpznCCTybxYNtr7p2hRbxdSWyjIks3LUjan917yMz0wQ3di+a+i/vLi5xyRekYsj5SCRPgfoeh9HuTdj0f0pWTAsTFaNqjG7hvKj/ZRAmLiEpGurI1mLevD7olG8u7/juiLSdA6NIZHI/vifWgfISEmDonpStRu1hL1n7z4mcDuQK9G4eqDqmjo0RQ1Srs1KpdcebgfHw2DGluiQbXi5+rSb+Fi7O94KLWHm3sT1FAZD1SErBRcib2KOxlS2Dg3RQtXW5T5btJTJufuVURdfYCqDT3QtHSl4VFCDOIS06Gs3Qwt69uZ9KeK+J4uLQFRF/6ErnZLtHEt5clSpf2pfGMoSkVjSZcch4jbNmjZqm7BwsXsYxPQuHcc3r16DJOcjF/2PKtY0aVgU/8m+KTRAUQtaWe23FnJl3EhPgP2zV5BPU0pX0iZlFeH9FsXEfv7Q0jt3eDepAYKw0KHtIQoXPhTh9otW8NV+BakvOTdR3z0JSTDEY1bNkDRkNSlrEX//wBrv/8/1DDVtC4NNy5cwI0sDRq4N0ctS+P+imJCpkpRQfs9SaXyuEmYPW9cwIUbWdA0cEfz8ijyKY2tBOW1RaV8IQvJly8gPsMezV6ph5KhUv6cc29dL9SdUxu74j9D86sxuK2sB/emjkViSBD5Bi5cuIEsTQO4N68Fc0QWza9Zybh8IR4Z9s3wSj3NE19DV8LOlaHCeZHN279H42KSFg6NPdDIvvA6c3RnMv9V1F/+ATlHrJ4RyyNFea7FLofD+XvJi5oFz/Zb0GLjEawNqA/lvUh8PqIPPkj6D36K/Bitn+HdjPDV2+OoIPTscQC9w3/CzKaV+1L9xScLZ+YGIKTxSqwZXPd5vDP2THmZ7fe/55vmU1Ds/rEer1fm4QmH8zfyT8+/HA6nHMjcJ2Dxe844PsoNGssqsHLsgI9vdMGy9dOeaaGLvEjMbm0NO69PkPWfRRj/P1FMqNB29i4EvwSF7kttv/9J3zQfiUQKC6nhJyk5nH8q/Mkuh/M/SN6DBFz6LRm51i5o0riGWV87Vg4tHt24hOtZjmharq+lOS8GL7P9uG9yOC87vNjlcDgcDofD4by08NcYOBwOh8PhcDgvLbzY5XA4HA6Hw+G8tPBil8PhcDgcDofz0sKL3f9ZtLi+dyGmrjxu3Bbh0Smsmvoxdl3TGnc8TbRIPDAPw3r6oFO3UVh/ueRf1TGbzDNYO3UOtlWmjfKgvY69C6di5fF7xh2VoZx6SP8ZX5V3rHr9zMLWi89YP2X2o8WNfYvw/tSVOJaS/3eA/iaeqU8/ex6dWoWpH+8ybjG0f+LAkvcxZflhJP3Nqq0U/3C7PHOyExF7+Z7+59JeKvIu4dvZU7DscOFfCHupKeHnWvx5YAnen7Ich1/4AM5GYuxl3NOLmYkza6di1taL+iMvKrzY/Z9Fi6Twr7Fq5znjtml06dHYvSoEx28+gyIpcz9mjVqAn2Qd4N+vB1o4VsItH8dhz6p1CLv+jIu5fLRJCP96FXaee2jcUQnKqQddRgy++7KcY81JxC+HfsSF5GdcSJTVT9ZprJy2EGHUEq84/L3p55n69DNHh/To3VgVUnizmhO5CtODDiOnpRcqE0J/N/9suzxj2M31V/08MWJr4ktY7F5H2Lov8G3E3f+JYreEn+dEYtX0IBzOaQmvFzqAtbj+VT94jtiKRL2hcpD4yyH8eCFZf/RF5R+cEjkvC7q0JCSl1USvyfPw/sQhaGv7v+mWz0UPmkHYEHcWS7qV9lfpniJl9KO9mQLbQWsQGtQVGuM+ztNAi1vJNhiweisW97Djif1lhdKRcjf9f+PJ5/8Y2lvJsBmwGlsX94DdCx3AhPSUu0gvcEINBm2Iw9kl3YzbLybPSaV5SDw4H4O8nKFRyqG2b4Y3PtqPRONDn5zr+zDb3wO1qsghUzugie9kbL2UaTj46Hu84z0My7YsxsBWjrCUK2HXyBcz9iWy9G4k5zr2zfaHR60qkMvUcGjii8lbL8HYAus+EQfnD4KXswZKuRr2zd7AR/vzr9ch+cRSBHjVhbVCBpV9Y/Sc/C0uZ+kPivAIZ78MRMeG9rBSKGDj5ImBQWG4w5xAl7Id4zr2wZLIHOO5TIyYT9G/42h886dYqnqE79/xxrDFIZjbrxmqqxSwqtMeb317GXGhb8HbuSoUClu49V6A8Af5beXg+r7Z8PeohSpyGdQOTeA7eSvy1Sh81RC3eSJedbODSmGD+t1n4khK8V+d0yWfwNIAL9S1VkCmskfjnpPxbVmKENO5meRdWIE3X1+KyJxkfD+hA9q/8z0bvZhNTPuTEIwPIpbgTfcaUCsEf+mBKd8lFPiLLuUklgd2RiMHK8gtWPvV3NDt7VBczjaeYIrMOGye+Crc7FRQ2NRH95lHUFyNFfOnsvSQcnI5Ajs3goOVHBYyFaq5dcPboZdRKCrh/s9B8Gtky3zCGi6dxiA4Ks1w6P4ujPcOwMxZA9DEzgp2HtNw/DaLpw49MDfc6JemYkOXgpPLA9G5kQOs5BbMJ6rBrdvbCC1QlAk7CHFbtB+jv3j6BOLjBWPwqkdRfzH6+7ItWDywFRwt5VDaNYLvjH1FbFoGGcfwUfcOGPV10SddOTi7yA/eb203bptHpfxCVFem/eL+rvHwDpiJWQOawM7KDh7ThCe2YjFdFC1ux4Yj7Jff2VUMc/KmLhknlgbAq641FMy37Bv3xGSWY/Jd9dnqw1zMiQETsHj9ZkI3NLRVQalpgNdmbMbnY70x+ps/9TJuH9cRfZZEGnQmkBeDT/t3NBzXU/H54dH378B7yCJsmNMbbrZK1r8rvMcE49wj4wkMkzn3yfhtNR4fjBmBdVeyER8yDB0DNyKBGdN03jYjtkT84NnNn+VHzCcfnf0SgR0bwt5KwfKzEzwHBiFMmJDFMMNfy2UrIdeyODVZ2zyB9nYswsN+we+GADYjJ4roXmxMj87iy8COaGhvxeYOGzh5DkRQ2B3Wqil0SAodhxHrriA7PgTDOgZiY8J9JmsH9JgbXnCOKbn0cTFsGbYsHohWjpaQK+3QyHcG9hU6pOlxmZPbSkP4nd1nTXbUfPKqYkMeY9bQkchzdCx4FLWw0lDPVX8QZZyi6S0syabVaPriwGmKCNtIkzvak8JlFO1J0RKlBpOvSkVVXF+lmZtPUGTEPgryrUXymiNpb5rQegadmt6CLG1a0egvDtDpiDDaOLkj2StcaNSeFNJSNkXN96IqNh40Zs0Rijx3jIJHtSArTU9a9Uce5cYuJR+NLbUeu5oORkTR6e8WUF9XS2ow7iA90EtfNrm/fMDG0ZgCg49RVNx5Orzcn5wUdWjMwXTS3vycuqpdaPzRLOPZTA8/vUdu6o60ND7PuKcsUinYV0lytTP1nLubTkeF0+qBziS3rkZObf5Da8N+oYjd06iDRkXtF1/RX5Fxajq1sLShVqO/oAOnIyhs42TqaK8gl1F7SFBj+rF3yU1ZnTq9/w2dOHOCQqd3IUeZhOQdl+qvZ4qgpT4asm09llYfjKCo09/Rgr6uZNlgHB1kiig+HjGdm4/2zhna9ukIaqawp+7Tv6INhy5TuohNTPqT4C9KCVnU6ELTQk9S1LlDtKxvXZLXGEF79P6SSjsCHEnVcDB9fjiSYmMjaN8n/uQi15D/5nvCCSZIp2PvupGyeid6/5sTdOZEKE3v4kgyiZw6Lo3Xn1FRfypND1mpOyjAUUUNB39OhyNjKZb5/if+LiTX+JMgqvbOauquYGO19aTx68LoTPhWmtm1BsldxtD++/nHpWTpPpY2nzpFO3eEU0qKEE8OFLj3MevVdGyk7gggR1VDGvz5YYqMjaWIfZ+Qv4ucNP6bSdCUqB0K+hHzF8HfVaSq4kqvztxMJyKZTYJ8qZa8Jo00BLkJ7tP2QdVJ3WEJXckPq6zj9E79KtT1MyaHCYr7dGX8gl0toivTfqGlO6u7k0JqSe5jN9OpUztpR3iKSExr6ebnXUntMt4gAGXRwTG1Sd1zDaUIm6J5M5dil/qQxrY1jV19kCKiTtN3C/qSq2UDGicE/DPWhymK2UUkBkyTTscnNSKlXTuaGHKczhzfxOaW2mSlUhjiVXuTPu+qJpfxR5n2jGT/RO+5qSsdzwKpwb6kVKioOpvbvjpymk5unUldHeXk9O89Bh2I5dwS8XuYTnwXpNdj3b5zKHhPND0QaUOwo+nYEvODZzd/luDxfhrlqKBX5lxgUpWGiE/m/kIftLCixoHBdCwqjs4fXk7+TgqqM+Yg8wTTiPpruW3Fcm2a6drmyRoh6+AYqq3uSWsMASyaE8V0b3pMufTLB8yOjQMp+FgUxZ0/TMv9nUhRZwyx8sUkaTF7KEiIwbp9aU7wHop+YJDVIXCv/rioXCwuVKoq5PrqTNp8IpLJFUS+teRUc6R514vnttJ5DsVuNp2YWJ+ULT+kc9nGXcz1jgYNpdFfnqW0nUOomro9LbpcWABqkzZSH40ldfviBmn1xYuCfFZcLyiisk9MpPqqNhR0iV2TtpOGVFNT+0WXqaAFbRJt7KMhy25f0I3HJ2hifSW1/PAck8RI+lEKGjqavjz7iMLeciZVu0WFEyUjNXQA2Vn3oRC905XN490BZFfVm4LOPzTIlpdAP65dRXvj0ko4skB5i10FK0TzT806Mo6c5M407ohQPDDYGL98VUU1R+9nG2m0c0g1UrdfRIVq1FLSxj6ksexGX9x4RLuH2ZPaZ3lBe6S9RWt7Wev7EMgKe4ucVe1oUXFF0AA7a+rDFFFsPGI6L0+1y9AmfUmvql1pwjFBV1kiNjHtT/pAYP7S6ZP4AtmyT0+hRipPmn+R7dEm09mtKynkZJGiPDucJjVUUZugS4XjKY203TTMXk0+ywvb1t5aS72sjZOnqOzGHWVQXA+CqGdp68oQOincrRjJDp9EDY2+r0+wShUb69Un5GHJ/5t7Bce7r7pVONaiRWi2qdjIpOSzW2llyEn9zZKBbAqf1JBUbYLoUp4ZdsjvR9RfjP7us4Ku5/ell81gEzH+2hNINZWtaW6MYYrM+HEcOdv40pqbhXorjWI+XRm/YFeY1pWYXxiKXaWqO626ld+AWEznihe7pvJmVhi95ayidouuFBlbKoUOsCPrPiFsHM9SH8ZdZVDULmIxYJL072i4vYr5XeEYtTe+op5VzS12KxfP+mJX2ZYWCnlHD7Pfej/SWL9BG5K14jm3tPjNjaG5rdXU8qPz+oJQrA3BpiZjS8wPTOaIys2fJRArdsV88vFuCrCrSt5B5+mh/oQ8SvhxLa3aG8eiyRTi/loRW4nVNrmixa6pnCieU0yP6THtDrCjqt5BdN6gLFa+/EhrV+0lVr6IkEsxc1uTuuVHdF5vqKLFrnjMGG4CfWhF4cD0c4kglznXi+a2Mnj2rzHo7uPipVuwecULzQr+DqMVun0YivVvv4I/Yq8go257eNcr/HvkUgcfdGyqxdWYS8gVdkg0qNfAseCdC6lGg6qSPOTkEPL+iMWVjLpo710PBS1IHeDTsSm0V2MQl3wRl27Z4BWvZoV/BtKqGz4MXY+3W99DdOxt5F1Zg/7uzdG8ueHTee4pZD6+hovxBV9ulYqq6wgMd/oVszxroY57Dwyf8T3SvAaid7MqxjMqgwTW9d1Q2zgoiWUVqGU14VxXbtghtYSlWgJtnhZMCYi9koG67b1RqEYpHHw6oqn2KmJi4xF3OQ21PTxRN/8401GHdg0h029okRQdi9t5V7Cmv3uBHpp3notTmY9x7WJ84dd8DDGdX9IbrYJok0zb5NodE/7kZdhk/lLfrXaBbFJra1SRZCPrMenl9Bo0HJ6PdmPR9PEY0b87PJv2xap4LXQ6HUz9OcG8hDhcTqsND8+6hW07dEC7hgYtisou4k9PInXwwqDhnni0exGmjx+B/t090bTvKsRrdUxWo6QWzmjX0aWIPG3Rpn4WLsdeM9hMYgtn59Lf4dTdNxEbXmo4eA3CcM9H2L1oOsaP6I/unk3Rd1U8tExPOq2puDbawYh5/iKBpl6DwoVVUg00VSXIyxHXWdUeg+HnEItd30YhDxk4sX0//uoyCP1qliO9VcIv2MWmdZVnnl9IbJ3hnP+ynlhMmxNkJvKmNikasbfzcGVNf7gb5WnevDPmnsrE42sXEZ/3DPVh+uJimBUDZaC9cRFX/nLEK22LxEdtH3RqbIxXMZ5CPFu4+qBLg4Le4dDOCw1yriDuWrZ5OddE/Jqft8uOLTE/uHbn2c2f5UYsRlVdMWK4E36d5YladdzRY/gMfJ/mhYG9m8H0jCzmr2bquZit8syrbUxiIieK+maeyJhU6DpiOJx+nQXPWnXg3mM4ZnyfBq+BvVGp8sXMmJFo6qFB4cCg0VSFJM+ccRl9ykRuKwszo74y5EKox2QWcma6kuRo89hBeXFBJBaQsR06ndaQVNm2RaG/6CloK0fL3EoGefEGYGFoANqcPJYSZLCQl9Z7NrKZ7qxbB2BqYJPCiVhAWhWN64uox7YnPjsThV7btmD3gR9xbP00bFm5DP3WhGN7T+GEJxQvBKTZiV4CudxY2BYgEVRRCixp6dVYXF6JhYyNnDm2NhdaZgOpoJMCJFCplAV6zDYoAgFTA9GkuCJQtXF91k6RX20Q07nZYywNMZsQzpjwJz1G/ymBIJcuCTtHeWP49sdo6uOD1i18MHLAGzjz4XRcNZxVNsyRtUwfxdWogkpZoMXK+dMT6JJ2YpT3cGx/3BQ+Pq3RwmckBrxxBh9OLyqpHAp5fsgLMJsLm/mOJsSOrAxN5ZqKDR2Sdo6C9/DteNzUBz6tW8Bn5AC8ceZDGLo3HdfFMMtf2HaZQS6CZVcE9KuLr3dvQ8QUH+w4lI0ey/ugRlG1iFEZvxDVlRl+ES2YivltwZjFYtqMIDOVN7OzWQ/WaB0wFYHFA56J1Bj1pc9SH+ZjXgyUDUmYviyKOJLE8JCgKMU1KRQC+XsqH88SlRrqon7I7GfBemRub0bO1TtF2fHLEG9DwERsifkBnXl282d5EY1RW/T87Ayiem3Dlt0H8OOx9Zi2ZSWW9VuDcOaPRWrOJxD314rYyqzaxiSmcqKY7qWiY7Lt+RnORPXCti27ceDHY1g/bQtWLuuHNeEs5spWlghm+EScoAamK+NuAwUOaZ5PmcptZVCe6aBiSKvBxcka9+Ov6hduGcjD5fVvYeicw3B2dYLsZhziChZaMTJjEPsbUMfFlU3lppE5u8JJdhNxcQ+Yy+aTiRhDA6jv6AIn6/uIv1rkxeu8y1j/1lDMOSSBq5MlMjJt0D5gOIYPN3yG9vRA/UYt0cDkkkgd7kVuw8pdd/DK6HkI3nMG8bdisKJzOg6GHsAdwRiUg2zhaaKRnDt3kFpkmE8NmTMbhww34+JQXI2x+A114NKgPhq6KnH70kXcLziejavXbjBLCFigJrODZUYmbNoHFOhh+NCe8KjfCC0bFH+yIKZzVzGjmcKipmmbVLc34U/7jdtlo7u5E6u3p6Lbykic++82rFs2GxP8aiD3L9aYMAOZQObcEK7K27h08X7huLOv4toNgxZFZS/XElsdbu5cje2p3bAy8hz+u20dls2eAL8auSgmqvYWrv2WbtxgpMUiNkEGV7f8ia5spNVMxMa+X7Fz9XakdluJyHP/xbZ1yzB7gh9q5P7FzmX/MRnXxe3wTP1FjxIdhvRHvRsHELosFIfRC0N62xmPmUdl/IJdbFpXFfELsZiupNIsajKbWGYg06Y9AozyDB8+FD096qNRywbQsCLzmenDeJo4ZsZAGVjUbYQGlkK8phb2mXUFV/9gd2l6hAmTkJP9uLDwyLmDO/lJ+inEszbxCq4UCc90Zs8/LOqhUUNluXJuIZIik3r58nZpiPlBdftnNX+WH7EY1d2LxLaVu3DnldGYF7wHZ+JvIWZFZ6QfDMUBU4vURP21InqWVbq2MYmYb2rYjYGpMenuIXLbSuy68wpGzwvGnjPxuBWzAp3TDyL0wB1jJ2UjKauyrGzMPNU5tDhP1xtLxRJdB/eDY8QXmPn1RaQxp0y7+DXmLtiEX9NsUM1vGHpbhmHhhGBE3mdFQ+bv+G76HOzMaIfBbzYqXtmXRjU/DOttibCFExAceZ9Nt5n4/bvpmLMzA+0Gv4lGVbticD9HRHwxE19fTGNGTsPFr+diwaZfkWbjDN9h/rA/9yneXngUt7JZcrobgRUjX0OXfkE4lWHso1SkkPy+BwsmTMT8g4msdGQ54K9b+PNeDuycnGBr5wxn21Qc37EPCexgduJhzF9xCI/Eb+cqQDX4DesNy7CFmBAcCYMav8P0OTuR0W4w3mxUHa+zuzrbY4vx7sYLeKTNwo0fPsLcHYU/3m3jOwz+9ufw6dsLcdSgCESsGInXuvRD0JOKENM5M1rWpf0IDv4e0UVWHpuHjYhNTPuTKMKdtiQHdxMS8JANXnvvV2yYOA8/PGQ2ys5f7lkGtq9j5ABbHFv8LjZeeARt1g388NFc7LhdoMVK+FNJhKd6kpy7SEh4yOykxb1fN2DivB/wULj7zReVHuLAog+wJyELuvRLCH1vHvbLX8fwPtXFg9vSVGxUg1wmQc7dBCQYFIVfN0zEPIOikCUS18Uww18qi6LNELzZ+A9sXPYDFK8PRo+qxgPmUhm/YBObaV1VxC/EYrqSSrPxxTB/e5z79G0sPHqLeZQWdyNWYORrXdAv6BQynqk+zMesGCiLqr4IHOiAU5+8i3VRD6HNTsTBuXOxPclY7Eo1cHa2RerxHdhnSNI4PH8FDhUk6crHMz3Yj4XTd+JaphYZV7djyry9kPgOR78a0vLl3HwkCigVhPSHD1kclTNvl4aYH5jMEebMn3m4eigYa3edK/KgxRSErPsJuHzxIi4WfC7hyq000RiVSn7HngUTMHH+QSQyWdiEjFt/3kOOnROcbExlQ3F/rYieK13bmETMN0XGJJXg9z0LMGHifBw0KAt/3foT93Ls4OQkNo9KoFAqQOkP8VBwwmJUNmae7hxaDOO7u88W7X06tag3uagtSGGpJrlUTS69l9DP+qV1WroTNodec1KTxEJFlkoZqWr70KTd1w0vqQsvI6tr0ugDxoVZjNzo2eSh9qDZ0YbX2LV3wmjOa06klliQylJJMlVt8pm0m64b33LX3j9Fi3q7kNpCQZZqOUnVLtR7yc+GlX3aVApf6Ef1rKQkVahIKZOQqk53mh2WXPgSfFnkxtOW0S1JY8H6rWpNarmc7L0m0K4E4SXpbIpb05/qqaVMHksmlwv5zRpPnazMXaCmppqjD1D+qLN/nkKN1O1p8W/51z6kjX7qghWQTAkUNuc1clJLyIL1p5SpqLbPJNpdoIRUOjGvB9VRSUmukJO8WjsK9G9Olvm/xsBGmxq+kPzqWZFUqiAVs4NEVYe6zw6jZKaIJxfciek8ZU1PUsqLyls2Ty7MErWJKX8qzV/iPqbW6hb0YSQTTnuPwma2JTuZlBRWVUilsCP3oQtphq+GNH1D9GM1hTb1BM3rUYdUUjkpmL2rtQsk/+aWBau3K+NPJRao3QujmW3tSMbsYVVFRQo7dxq6cAb5ajTUNySZcoVFEZYNqU9gV6qpVJFKzmzr6EMfHL6t70u/aEJdh8YeLlh+Y9BPwa8ksHPKjA0t3QubSW3tZGwcVlRFpSA796G0cIYvaTR9KUTvFCJ2KNqPSX8p6e8syGm2h5o8Zkcbd4iRS3Hz25BCVo/pr9D2pii+QK0yfmGOrkz5hWGBmrrOWCpqKtMxbcavMYjlzdRwWuhXj6ykbMwqZhOJiup0n01henmfsT5MUGyBmkgMmG6J8eA0LfVzMcQry3vV2viRd21VQbxmx62h/vXUJGW6tWQ6dvGbReM7WT2VeNavOrdtS6/71GS5QsHiQ0m1u8ygA0n5V4rk3NLil0XI8UlupLRQUtUWUyg823Qb5sSWST8Qjldq/kyjTX2UJG89l2KMc0OZ6BeoSYU7jSc+EtIM2UkZoj6ZS/FbRlNLjQWLl6pkzWSV23vRhF0Jogsqxf21IrYyXds8OaeWXKAmkhNFcorYmHLjt9DolhqyYLJVtWb5W25PXhN2kb58EeHx8UnkprQgZdUWNCU8qcgCNYaITwhxoa45mgpTUy5Fz/Ygtcdsw6aYT5mR20pDIvwPc6jnQt793xF9MQlah8bwaGRf+MK7QN59xEdfQjIc0bhlA1QrdtAc8nA/PhqXkgHHxi3RoEQD7Pjv0bjI7uodGnugkX3x49pHCYiJS0S6sjaatawPO7P71yH91kXE/v4QUns3uDepAZXxiEDO3auIuvoAVRt6oGmNZ/xD/oy8+/GINigBLRtUK65jRlbyZVyIz4B9s1dQT1PK3a72ERJi4pCYrkTtZi1R36QiTOhcl4K1/f8DrP0e/1eulycLEbOJSX8yiQ5pNy7gwo0saBq4o3ktS+N+c8lC8uULiM+wR7NX6qF0NVbUn55Al4YbFy7gRpYGDdybo3RRmQ/eiEL0LTnqtWpZxjmmKDs2dGk3cOHCDWRpGsC9eS2U1rT5dhCL0cqgQ8qm/mjySSMciFqCdhVqunJ+YY6uKuIXYjFdObR4lBCDuMR0KGs3Q8v6dkXaf/b6MAuzYsAUOUi5EoXf0h3QvHkSPnbvgbNjYvHT1PrGw3dxNeoqHlRtCI+mNVBalq6I3e6t64W6c2pjV/xnaH41BreV9eDe1LHY/KCnXDmXwfSREHUBf+pqo2VrV+gfWpa3jRKY8gOBZzV/lhdxn9Sl38LF2N/xUGoPN/cmqFFC4aVjlr9WRM+Vrm1MY0r3omPSpePWxVj8/lAKezd3NDFXWYIdEqJw4U8dardsDddSnpxX1ieetk8912KX879D1pm5CAhpjJVrBqNuxWpdDsc8hK9HH0chqGcPHOgdjp9mNq3kV4Scl5acn/F+iyeK3WdEQbH7x3q8bm4NweFwngm8DOE8E1RtZ2NXMC90Oc+aPETObg1rOy98kvUfLBrPC12OKSSQWlhAWuYKm6eHRCKFhVRS9mIeDofz3OBPdjkczj8a7aMbuHQ9C45NG+GJb1c5HA6Hw+HFLofD4XA4HA7n5YV/yczhcDgcDofDeWnhxS6Hw+FwOBwO56WFF7scDofD4XA4nJcWXuxyOBwOh8PhcF5aXs5iN/1nfDV1DrZdLvG37DhPFS2u712IqSuPG7fLyaNTWDX1Y+y6ZvzzneVFm4gD84ahp08ndBu1HpUyd+YZrOU+8/KgvYF9i95nvnkMKWb9mVJzyUZi7GXcq0Sb6T9/halztlXcX//p+a2ycc/hcDjl5KUsdnUZMfjuy3UIu84Ll2eLFknhX2PVznPG7fKhS4/G7lUhOH6zYnbK3D8Loxb8BFkHf/Tr0QKOlfHmx3HYs4r7zMtC1umVmLYwDNTyFTg8tSzHbu6+6gfPEVuRWOFiV4eMmO/w5bowVNjVsm/g7KEjiEn5ZxaLlY17DofDKS/8NQbOPxQd0pKSkFazFybPex8Th7SFLfdmjh4tbqbYYtCaUAR11Rj3PQ0I6Sl3kf5UnxRXgGoB2BR3Ggs7P/s/P87hcDgvA8+lPHj0/TvwHrYMWxYPRCtHS8iVdmjkOwP7EvOfTOTg+r7Z8PeohSpyGdQOTeA7eSsuZRoPP/oe73gPw+KQuejXrDpUCivUaf8Wvr0ch9C3vOFcVQGFrRt6LwjHg4KJiHD/5yD4NbKFQmENl05jEByVZjx2H7vGeyNg5iwMaGIHKzsPTDueCV3yCSwN8EJdawVkKns07jmZ9ZFlvKY4Gcc+QvcOo/B10Uc8OWexyM8bb21PNu4owqOz+DKwIxraWzF5bODkORBBYXf0f+lUoDx968mMwzcTusHNTgVFlTpoP2YVlo3rhIGfx7HGUrB9XEf0WRLJNGskLwaf9u+I0d/8qd/UpZzE8sDOaORgBbmFDKpqbuj2diguZ+sP4/6u8fAOmIlZA5rAzsoOHtOEVxUyEbd5Il51s2M2sEH97jNxJKXIzzSzfk8uD0TnRg6wkluwcVSDW7e3EZrfqEl0SDm5HIGdG8HBSg4LmQrV3Lrh7dDLKHl1Hi6seBOvL2XjS/4eEzq0xzvfPxKUiBNLA+BV1xoKdr19456Y/O1lFGoxD4kH52OQlzM0SjnU9s3wxkf7UeCGzGceRCzBm+41oFYoYdeoB6Z8l8BKJ4HyyGfEpDyP8P073hi2bAsWD2wFR0s5lHaN4DtjXxF5noTp/5sJ6NbQFiqlBg1em4HNn4+F9+hv2DEm3/Zx6NhnCSILjY6YT/ujo/64gfL6menzjWNYHIK5/ZqhukoBqzrt8RYbY1zoW/B2rsp83RZuvRcgXB+YhvOHLNqAOb3dYKtUQuPqjTHB59iRfHRIPrEUAV51Ya1gfmnfGD0nfwt9l7pb2DymHTw9PZ/4tEPgxgT91TnX92G2vyd8Aj/GgjGvwsN3MrYWJJKSiMVBITokhY7DiHVXkB0fgmEdA7ExQVtqnJjVJt3Hz0F+aGTLcpe1CzqNCUZBehKLo/u7ML6DL+b/LBhazC9Lz3UlyEvEwfmD4OWsgVKuhn2zN/DR/kSj75vOz+L53RTPKK7M9kmj/EMWYcOc3nCzVUKpcYU3s8c5o1OWngtN+KmeRzj7ZSA6NrSHlUIBGydPDAwKwx19lxUYM4fDqRzCH5V41qQG+5JKVYVcX51Jm09EUsS+IPKtJaeaI/fqj2ecmk4tLG2o1egv6MDpCArbOJk62ivIZdQeStHqGyBfpZzUzj1p7u7TFBW+mgY6y8m6mhO1+c9aCvslgnZP60AaVXtafCWPtHdWU3eFhCxsPWn8ujA6E76VZnatQXKXMbT/PmtPe4dWd1eQ1NKdxm4+Rad27qDwpAu01EdDtq3H0uqDERR1+jta0NeVLBuMo4MP9GIW5/52GlRdTR2WXKE8466s4+9Q/Spd6bM/8vfkk0u/fNCCrBoHUvCxKIo7f5iW+zuRos4YOpguHI4tX9+URmHvuJGyeid6/+vjFBG+nWb71iWFVEZNpkWw8d2kz7uqyWX8UcoyXkHZP9F7bmrquDSebaTSjgBHUjUcTJ8fjqTY2Aja94k/ucg15L/5HjuupTuru7P2LMl97GY6dWon7QhPofRj75Kbsjp1ev8bOnHmBIVO70KOMgnJOy7Vd5G6I4AcVQ1p8OeHKTI2ltn5E/J3kZPGfzMJrT6J9ubn1FXtQuOPMilTd1CAo4oaDv6cDkfGUmzEPvrE34XkGn/Si1QMJt+ZbfTpiGaksO9O07/aQIcup1PsUh/S2LamsasPUkTUafpuQV9ytWxA44xKzI6aT15VbMhjzBo6EnmOjgWPohZWGuq56g+jjzGfqdGFpoWepKhzh2hZ37okrzGC9qSxi8sln0CuiDypFOyrIlUVV3p15mY6EclsEORLteQ1aeReocOSpB+fRI2UdtRuYggdP3OcNk3uSLWtVKTQ619LNz/vSmqX8SSo00A2/fSeG6mN9im3n4meL4xBSXK1M/Wcu5tOR4XT6oHOJLeuRk5t/kNrw36hiN3TqINGRe0XXyk4X6GqzmL9Kzpy+iRtndmVHOVO9O89BiXmxi4lH40ttR67mg5GRNHp7xZQX1dLajDuID2gvyhm3wYKDg42fr6i2X2cSG7lQdNP/iUkEprewpJsWo2mLw6cpoiwjTS5oz0pXEbRHn0ieRKxOChOWsweChJsXrcvzQneQ9EPSouTK+bFlsSCbD3H07qwMxS+dSZ1rSEnlzH7SUhPYnGkz2+qmjT6wGPhZNN+WVquK6GLbIqa70VVbDxozJojFHnuGAWPYvlK05NWsVwmlp/F8vuTVDzuBcyJq/L4pEF+pUJF1ZnffHXkNJ0U7OEoJ6d/72H6Lj0XmvZTJuUvH7Dc0pgCg49RVNx5Orzcn5wUdWiMkPDLPWYOh1NZnluxq1T40Irr+Uk2m05MrE+qNkHs32m0c0g1UrdfRJcLakQtJW3sQxrLbvTFDX02ZYWIQl+oGU7JoiPj2CTnPI6OsHwvoE36kl4VJoD9jw2TgVJFnT65WlCIam+tpV7WbML5hmUT/QSgJFX3VXTLKFJW2FvkrGpHi1ixXEBqKA2ws6Y+ISnGHUX5i/YE1iRl67kUkytsZ9CP45zJxncN3XxyLqHHtDvAjqp6B9H5h4aDeQk/0tpVeymO1TXl7vvBtzTQrir1WHWDacrIve00xEFuXrGrTaazW1dSyMmUwuuzw2lSQxW1CbrEdGZI8EpVd1qVryBmp93D7Ents5ziC5VKa3tZFxRbyWe30sqQk4YbFD3ZFD6pod7Ol4oMLZ+ik542+SxtXRlCJ4tMxNnhk6ihqg0FlXax4CNfvkpq1wl0TBhkVhi95ayidosKbz6YEil0gB1Z9wmhFKPPKVt+SOeyjYcpnY4GDaXRX54t8LFOn+T7GOv/9BRqpPKk+ReZRsorn6g8xsLPZwUVhsUJmljfYIOSpNN3w+1JxeKkwE20N+irnlXNLnbL62fi5xvHwNrP94msI+PISe5M4woDk758VUU1R+9nG4bzlW0XElOpAXZ8vZ+GrN/YQMnaLAp7y5lU7YqMkZEaOoDsrPtQcRG1lHJ4Erlb16H+G+NZCcQ8dOcQqqZuT4sKEwlrfiP10VhSty+KxEo+onHwJLkUM7c1qVt+ROf1MV9KnJgdW53ok6sFSqBba3uRNSt2vrknHkdFi11Rvywl15VA73dKavnhOdaTkfSjFDR0NH15NlU0P5vO7yWpVNybG1dm+yS7WpBf2ZYWFjolJa33I431G7QhObeUXCjup493B5BdVW8KOv/Q4Ad5CfTj2lW0lyX88uc6DodTWZ7bW44STT00KFhBJIVGUxWSvBwg7w/EXslA3fbeqGdhPMyOO/h0RFPtVcRcyjXsklijvlttGE6RwLKKGrKazqgr1++A1NISaokWefnfnFk4o11HF+P57LhDW7Spn4XLsdeMX+1LYOvsDDu9SFokRcfidt4VrOnvjubNmxs+nefiVOZjXLsYX/g6QAFV0WOwHxxid+HbqDwg4wS27/8LXQb1Q80SWlWh64jhcPp1Fjxr1YF7j+GY8X0avAb2RrMq5e8777cYXM50RhuvWoXvoWjao10zozLEkDrAa9BweD7ajUXTx2NE/+7wbNoXq+K10Ol0yH8xQWLrDGeDglinCYi7nIbaHp6oW6hUdGjXEDLDBhy8BmG45yPsXjQd40f0R3fPpui7Kh5a1qZO5I9SSx28MGi4Jx7tXoTp40egf3dPNO27CvFadq3YxQxtUjRib+fhypr+cM/XYfPOmHsqE4+vXUR81n1cvHQLNq94oZnCeBGs0O3DUKx/28uwKdEU8TEmk7U1qkiykfWYyi2fqDx6o0qgqdegcGGdVANNVQnyckp6m/DrAhev/AXHV9rCpUDA2vDp1NiofzHK62fmni+BdX031DbKJLGsArWsJpwLAxOWagm0hYEJV58uaFDEh9p5NUDOlThcy05CdOxt5F1Zg/7uxv7Yp/PcU8h8fA0XDUrTk3nhMwSM2ATlu99i47/rMx3k4Y/YK8io2x7ehYmENe+Djk21uBpzCcZMUoiZcSBGsTgxs00L53boWGhIOLRtg/pZlxF7La9ccWSeXxbNdSXR3b+IS7ds8IpXMxSGRjd8GLoeb79yy6z8XGZ+F+FZxVX5fJLZw9UHXQqdEg7tvNAg5wrimD0EitlYK+6nqq4jMNzpV8zyrIU67j0wfMb3SPMaiN7NqpR7zBwOp/KUkf6ePhILi4IiwoDE+P85LOkAMnnxKVtiIWMTGAt+rTH4JXLIn6zlJJIn2iyKHAp50eGx9oRNKpwALFgf+VJkZ7Msad0aAVOnY/r0/M9sLAsOwaJ/CZNpSSy7BqBf3WvYvS0C98N24FB2DwzuU6NUpdr2/Axnog5hzRQ/uKafwfppb8LLYyA2/qGtUN/C+6XC5GmK4mlTmCiNe3RJ2DnKE57/+hi7o+9DWc8HI+fNwUCn4pILNpPlK4gVE1o2N0hlRaWRQKVSGnWoQ9LOUfD0/Bc+3h2N+8p68Bk5D3MGOpnlZLqknRjl6Yl/fbwb0feVqOczEvPmDMQTIpVNdjbzJGu0DphaRIfTMXtZMEIW/Qv1Zbn6GyGZhbzA5iWQsPGWpmymtnLLJyqPcJLgg094cJnCMUjC5LMocgq76bNUF7+kuNH1k2f+rvL6mXnnS1hclghMQZVlwHxGrS7mExZsTCDmn8iGocsATC3oj31mL0NwyCL8y6A06P7cifFvzsbv3Vdjx5xOsNHvZZnEkEiKj8NoU51O+6RqBKOaFQdiFIsTc9uUK1A8Pcn0OiGmh/LEkXl+WTzXlSCXxTbTmoW8tDPMy89l53fTPKu4Kp9PsqMqNdRF+2Tjs2Aek59ii+dCM/zUtic+OxOFQ2umwM81HWfWT8ObXh4YuPEP5FY213E4nHLz94eXzBmuTjLcjIsrsrgMyIyJxW+oAxfXJ5OWmWhv4dpv6cYNRlosYhNkcHUrrXi0QE1XJ1hmZMKmfQCGDx9u+AztCY/6jdCygV3pilJ2wJD+9XDjQCiWhR4Geg1BbzvjsaLo7iFy20rsuvMKRs8Lxp4z8bgVswKd0w8i9MDdcvcta9gCTdQ3cC6ycIEb/opE5OX8Z1ds4rEg5GQ/Lpzgc+7gTqrhbN3NnVi9PRXdVkbi3H+3Yd2y2ZjgVwO5f7HjZRXQzE4NXZW4feki7hecko2r126wMpihu4mdq7cjtdtKRJ77L7atW4bZE/xQI/cvYUoslLNUdLi5czW2p3bDyshz+O+2dVg2ewL8auTClEhFsajpCifLDGTatEdAvg6HD0VPj/po1LIB7GTV4OJkjfvxV42LRATycHn9Wxg6Z79xuyzKL5+oPOWNPIu6aNTAUq9/oxkZWbhy9Q/jIiJ2CpuQKScbjwuNjjt3Uo26L6+PVzAmRNEi8coVFEZmOuLi/oBFvUZoqKzJcoElMjJt0D7A2B/7DO3pgfqNWqKBoLRHP2HuwLHYV3MmtgUPgXNBASODM5NXdjMOccUTCWJ/A+q4uOLJTFKROGD31yYxt03trWsonp5ikSBzhZvrnXLEUeXjRkBazQVO1vcRf7VIPsm7jPVvDcWcw6pnk5/1vABxZUSbeAVXitgjnY33D4t6aNSw5GzBhBDxU+Be5Das3HUHr4yeh+A9ZxB/KwYrOqfjYOgPiNpeeZtxOJzyUcHU8DSpBr9hvWEZthATgiNxn1VOmb9/h+lzdiKj3WC82cjE7bgp6CEOLPoAexKyoEu/hND35mG//HUM71O91EHb+A6Dv/05fPr2Qhy9lc2y311ErBiJ17r0Q9CpDONZT6JAmyFvovEfG7HsBwVeH9wDVY1HiiGV4Pc9CzBh4nwcTBTW2+bhr1t/4l6OHZycbMrft8YP44bVwql5wzBt0zGcPrkDHw9/D9uTyTAZSzVwdrZF6vEd2JfA2stOxOH5K3DokbEKEp5+SXJwNyEBD1ly1d77FRsmzsMPD4UHJwXLiZ/AFq+PHADbY4vx7sYLeKTNwo0fPsLcHbeNE6QMcpkEOXcTkGBoFL9umIh5hkaL/CJC6QhPjiQ5d5GQ8JC1p8W9Xzdg4rwf8FB4iiJ2sYCNL4b52+Pcp29j4dFb7Cot7kaswMjXuqBf0ClkwBJdB/eDY8QXmPn1RaSxWSXt4teYu2ATfk3LfzZYNuWWT1Se8lIVvoED4XDqE7y7LgoPtdlIPDgXc7cnsZYFpNA4O8M29Th27EsQpELi4flYcehRwQ1Pef2sYjEhBuHB/oWYvvMaMrUZuLp9CubtlcB3eD/UkNrAd5g/7M99ircXHoWhywisGPkauvQLwqlHV7EucDCW3uqCOfP7wirhIi5eNHwuJz5ENb9h6G0ZhoUTghFpSCT4bvoc7Mxoh8FvNmLl+xOUOw4kUCgVoPSHeKi/wysFM9ukhwew6IM9SMjSIf1SKN6btx/y14ejT3VFueKo0nEjYNkVg/s5IuKLmfj6YhoruNJw8eu5WLDpV6TZ1Hs2+dnI3x9XBujBfiycvhPXMrXIuLodU+bthcR3OPrVKHW2MO2nGVJIft+DBRMmYv7BRCYjy/h/3cKf93Jg5+QEW6X4mPOuHkLw2l04V/hkgcPhVAbju7vPFGEBgLrmaBIWDxvIpejZHqT2mG3Y1N6hsDmvkZNaQhYqS1LKVFTbZxLtvq5fBSI0QL5q4+pjPdn085RGpG6/mH7Lf5//4UbyUztQ4F7jAjXLhtQnsCvVVKpIJZeS3NGHPjh827BYQL9oQ011xh4uXMDFjqSGLyS/elYklSpIpZSRRFWHus8Oo+TCdQQlyY2j+W0UJKs3gY4VjK8kufFbaHRLDVlYqKiqtZrkcnvymrCLEvTyV6DvjFjaNK4z1dMoSV6lNnkNm0j93ZTU4sNz+sPZcWuofz01SZkuLZlOXfxm0fhOVsYFavcobGZbspNJSWFVhVQKO3IfupBm+GpI0zeE9WlYRKOuM5YOFyqIXZdKJ+b1oDoqpk+FnOTV2lGgf3OyNC6Quhc2k9rayUiqsKIqKgXZuQ+lhTN8SaPpSyGlDKTYQpV7YTSzrR3J2PitqqhIYedOQxfOIF+NhvqGJBvsVownFqgJe1LDaaFfPbKSsnGplCSTqKhO99kUlt+39j6dWtSbXNQWpLBkNpCqyaX3EvpZv4j7SR8TTPsxtVa3oA8jcysgn5g8wkIaNdUcfYAKwyKaZnuoyWN2tHHHkzyg00v9yEWvfwXTfxvy865NKuMCNGZ0WtO/HqmlMlJZMru7+NGs8Z3IKv94uf1M7PySY8j+eQo1UrenxYWBSRv91OQQKKzMF85XkW3b18mnJpOf+ZBUWZu6zDhASfn9Mx8LX+hH9aykzI9ULBdISFWnO80OS6ZcYREqqzWFtPXkR+m3UbiY7oTNodec1CRhcWbJ5FXV9qFJu6/rF7CVQDQOjOcV4fHxSeSmtCBl1RY0JfxxyTgxM7YsG/ahwK41SalSMT+Uk6PPB3T4ttCheBwVW6Am5pel5rqSaO+fokW9XUhtoSBLNbMLi8veS37W/7KAWH4Wze9PULm4Z9eXM65M+6RBfpVtW3rdpyYp5MwvpUqq3WUGHdA7Zdm5sCw/1cucG09bRrckjYUFqapak1ouJ3uvCbSLJXxzxpy2qQ8p5a1prmH1M4fDqSQS4X/YZPFCkHc/HtGXkgHHxmjZoFrhYokKo0P6jShE35KjXquWqGVp3G0K7SMkxMQhMV2J2s1aor6diBS6FGzq3wSfNDqAqCXtTMusS8eti7H4/aEU9m7uaFJDZTxgxNy+dcmIi7gNm5atULeKcV/2MUxo3Btx717FiUlOhn05d3E16ioeVG0Ij6Y1UPwn6HVIu3EBF25kQdPAHc3NUo6BrOTLuBCfAftmr6CepviTD13aDVy4cANZmgZwb14L5rfK0KXhxoULuJGlQQP35ubZqwRaPEqIQVxiOpS1m6FlfbsSNsm7/zuiLyZB69AYHo3szfezCsknLk95yUm5gqjf0uHQvDmSPnZHj7NjkPnT1PyjuHs1ClcfVEVDj6aoUdrfHSivj5f3/DK5h3W96mJO7V2I/6w5rsbchrKeO5o6PhEHDO2jBMTEJSJdWRvNWtZHubrMu4/46EtIhiMat2yAaiavLW8csPMTonDhTx1qt2wNV5vSnvyZ2SbLBzeionFLXg+tWhaPFVNxpLu9Cq/VWwTX735n+mQGfipxI5CH+79H42KSFg6NPdDIvrjinn5+NvI3x9W9db1Qd05t7Ir/DM2vxuC2sh7cmzqipFeWxLSfsvnn1kXE/v4QUns3uDepUdjmU7MZh8Mxhxeq2P2nIXzB9DgqCD17HEDv8J8ws2nlvtIzm7wozPJsjy0tNuLI2gDUV95D5Ocj0OeDJPznp0h83LqU98w4LyE5+Pn9Fk8Uuy8yhcXuH+tfN6uY4JQkO2I6XunyA/xORmNJ26dWcv7PUlDs/rEer3On5HBeSl6Ad3b/oeRFYnZra9h5fYKs/yzC+OdV6ArI3DFh8XtwPj4KbhpLVLFyRIePb6DLsvWYxgvd/ykkUgtYSM1b+f73I9HLK5Ww/zfu4ZSHbJx4txFsfZbjZst/oX8rXug+DSQSqT6GxBYfcjicfy78yW6F0eLRjUu4nuWIpuX5KvxpkvcACZd+Q3KuNVyaNEYN/lUYh/NSk3nnCq7ekqB280ZwKO0VFQ6Hw+GUgBe7HA6Hw+FwOJyXFv4aA4fD4XA4HA7npYUXuxwOh8PhcDiclxZe7HI4HA6Hw+FwXlp4scvhcDgcDofDeWnhxS6Hw+FwOBwO56WFF7scDofD4XA4nJcWXuxyOBwOh8PhcF5aeLHL4XA4HA6Hw3lp4cUuh8PhcDgcDuelhRe7HA6Hw+FwOJyXFl7scjgcDofD4XBeWnixy+FwOBwOh8N5aeHFLofD4XA4HA7npYUXuxwOh8PhcDiclxZe7HI4HA6Hw+FwXlp4scvhcDgcDofDeWl5LsWu9sY+LHpvEiZNKu0zBZ+fuG8880UlE2fWTsWsrRf1W+k/f4Wpc7bhcp5+swSPTq3C1I93Gbc4/0Tybcz5Z/LMY1B7HXsXTsXK4/eMO8TJTozF5Xs649ZzIPMM1k6dha0Xy0hUlaUCOqgQuke4vP9zTB3ZHz27+qCb3zC8v/K/+CPLeLxCaHF970JMXXncuP3P5anmquxExF6+B4OXFp/3OE+PzDNrMXXWVuPWy0o2EmMvw5Dy/n5fej7F7u2f8M2XG/Hjlbu4d+9eic9fj7XGM19UcpD4yyH8eCGZ/VuHjJjv8OW6MFwvdQ7RIT16N1aF/POT6P8y2TfO4tCRGOMW55/Fc4hBbRLCv16FneceGneYRnv9K/TzHIGtic+x2M1JxC+HfsSF5GeUX8upgwqRHYfgf72C1kNXIU7VAj38B+C1plqcXPAG2nSfh58eGc8rN1okhX+NVTvPGbf/uTy1XMVuXr7q54kRWxONxW7ReY/zNMlJ/AWHfrxg3HoZYTeTX/WD54itMKS8v9+Xnt9rDJLqeHX6RmzevPmJTwg+6mVvPOlFRYNBG+Jwdkk34zbnZadawCbEnV5o3OJwKgelp+Bu+nMsdAU0g7Ah7iyWdFMad/zTyMG5hYGYfLQOPjxyDofWzMOUie9ixtJv8dORj9EsdiHeWnyWnfW/zVPLVZSOlLvpxkJXgM97zwrNoA2IO7vEuPUyQkhPuYvClPf3+9IL9c7uo7NfIrBjQ9hbKaCwcYLnwCCE3TFvgnj0/TvwHrIIG+b0hputEkqNK7zHBONckTv/nOv7MNvfA7WqyCFTO6CJ72RsvZRpPPoIZ78MRMeG9rBSKGDj5ImBQWEwdP8I37/TAT3mhuvP1EP38XOQHxrZMlmtXdCJ9RWVZjz2BLrkE1ga4IW61grIVPZo3HMyvr1cju/g8hJxcP4geDlroJSrYd/sDXy0P5HdOwnk4Pq+2fD3qIUqchnUDk3gO3kr8oel18uwxQiZ2w/NqqugsKqD9m99i8txoXjL2xlV2Vht3XpjQfiD/AvwjvcQLNowB73dbKFUauDqPQbB+Yq8vwvjvQMwc9YANLGzgp3HNBzP1CHl5HIEdm4EBys5LGQqVHPrhrdDLyO7zGv0rZWNmBwsJZvsk2HSn3QpOLk8EJ0bOcBKbsHsUg1u3d5G6GXD1fd3jUcH3/n6fwuYtqEp3xFD8C1vDFm0AXN6u8FWqYTG1Rtjgs+xI0bMkNU7YCZmDWgCOys7eEw7LnqNGLqU7RjXsQ+WRBaWEnkxn6J/x9H45k82ML19hmHZlsUY2MoRlnIl7Br5Ysa+fL80zcP9U9DFZzL2Gd1OT/p/MaNbF7y37x5Sto9Dxz5LUNh9HmI+7Y+Oo78xbuuQfGIpArzqwlohg8q+MXpOZn5dRliZjn0zyIzD5omvws2OxZBNfXSfeQQpZDwmoEvGiaUB8KprDQXzRfvGPTH528sQxNElhWLciHW4kh2PkGEdEbgxQdhrUv7SbFqhWO7QA3PDmRLNsJcu5SSWB3ZGIwcryC2YTNXc0O3tUBS4jJgORHJRucn4L1avi0XtkUGY4lXVuNOAyv0dLFr8Hga7K/XxLio7MhG3eSJedbODSmGD+t1n4khR4SsTL/+oXFUGuiSEjhuBdVeyER8yDB0DNyJB+8S8Z8LHBQz+uQxbFg9EK0dLyJV2aOQ7A/sSCzysXDFblGebj8Ry8H3sGu+NgJmzMKCJHazsPDBNmMBE9GFq3hZ01aHHXMN5jIrmp4xjH6F7h1H4uug3RjlnscjPG29tF3uKmofEg/MxyMsZGqUcavtmeOOj/cg3l0mZTOpbh6TQcRix7gqy40MwrGMgNibcf6KGMu0L4r4kqL+cfk7PgewzU6mxwpUmHMsy7imF3F/ogxZW1DgwmI5FxdH5w8vJ30lBdcYcpHTjKaZIDfYlpUJF1VuNpq+OnKaTW2dSV0c5Of17D90TTsg4RdNbWJINO/7FgdMUEbaRJne0J4XLKNqTomXdf0AtrBpTYPAxioo7T4eX+5OTog6NOSj0nkrBvipyCNzL/q2lO6u7k0JiQbae42ld2BkKF/qqISeXMfvpPjt+8/OupHYZL/TKxhVLS300ZNt6LK0+GEFRp7+jBX1dybLBODr4wHCKabIpar4XVbHxoDFrjlDkuWMUPKoFWWl60qo/8tiwplMLSxtqNfoLOnA6gsI2TqaO9gpyGbWH2LAMepGrybnnXNp9OorCVw8kZ7k1VXNqQ/9ZG0a/ROymaR00pGq/2NBdajD5KhWkqt6KRn91hE6f3EozuzqS3OnftIcpUntnNXVXSMnSfSxtPnWKdu4Ip5SUHRTgqKKGgz+nw5GxFBuxjz7xdyG5xp82l3UNk80kInJQquk+xfwpdUcAOaoa0uDPD1NkbCxF7PuE/F3kpPHfzPzFYGNVzdGCJKI2NO07Ygi+pSSFqjqz4Vd05PRJ2jqzKznKnejf+oGaJ6tCaknuYzfTqVM7aUd4isg14mhvfk5d1S40/mhhzGb/9B65qTvS0vg8g31UKqri+irN3HyCIpn+g3xrkbzmSNqbZrzABNo7m6ivrS35b0417iF6sGMIOWj8aP3t3IIYKuw+m356z43UHZfqt3Jjl5KPxpZaj11NByOi6PR3C6ivqyU1GHeQHjwZgyKxL046HXvXjZTVO9H735ygMydCaXoXR5JJ5NRxaTw7nkuxS31IY9uaxq4+SBFRp+m7BX3J1bIBjRMcJC2G9gT5k4u8LvWdE0x7oh+Iyl+qTSsSyyoHCtz72Ax7pdKOAEdSNRxMnx+OpNjYCNr3iSCzhtlI8BgxHQhqNp2Lykt2xHRqKren4d9nGPeUhZjsTPpj75Kbsjp1ev8bOnHmBIVO70KOMgnJjf5UqXj5B+WqskmjmD1B+nbr9p1DwXuimR8WnfdEfJwh+KdKVYVcX51Jm09EMjmDyLeWnGqOFK4Xi1nTPNt8JJKDtXdodXcFSS3daezmU3Rq5w4KT8kW0YfpeVuvK4dAQ/eVyU/3t9Og6mrqsOQKMS3oyTr+DtWv0pU+Y/2YIjtqPnlVsSGPMWvoSOQ5OhY8is1jGuq56g9xmUT0nRazh4IEH6/bl+YE76HoB0V9SdwXxHypIn7+/IpdmZTkKkuytHziYzuANgvO+Hg3BdhVJe+g8/RQb988SvhxLa3aG8fCUBz9RKBsSwsv5htYS0nr/Uhj/QZtSNZS2s4hVE3dnhZdLnQAbdJG6qOxpG5f3KCM3QFkV9Wbgs4/ZFcy8hLox7WraG+c0HvJYlep6kSfXC3s69baXmTNktc394pPtFlhb5Gzqh0tulLE8VJDaYCdNfUJSTHuMEH2CZpYX0ktPzzHwsdI+lEKGjqavjybSjuHVCN1+0VUOCw27o19SGPZjb64oTXoRWFMCAJZR2ick5ycxx0hNgUy2PlfvlqYLPWJW0ltF14sCB5t0nry01jTGxuSKVcoXJUq6r7qlkFPwvHks7R1ZQidLBKY2eGTqKGqDQVdyjMUu09cI4qYHCJ9mvYnLSWf3UorQ04WmYSzKXxSQ1K1CaJLecUnEDEbPjbpO2IYEq2y7UIqdN0kWu+nIes3NlCy1jxZlarutOpW/gli1xh3mcCsyYVN8D4rrhfYNPvERKqfr39R7tP2wQ6k6bOR7ugbuEdb3qxG1d/cwjRSGEOlF7tZFPaWM6naLaLiJhlAdtZ9KIQNumgMisV+gYrKIm03DbNXk8/y+EJfvLWWelkrDIVeVhi95ayidosKJxzBrqED7Mi6TwgJUZ4bM5daq1vSR+dz2Za4/CVtKqi8ArFctNg1ZS9tMp3dupJCTqYU6iM7nCY1VFGboEuUJ6YDFlViuai8PN4/mmrKm9C0iILMVzpisjPZdg+zJ7XPcspXHROe1vayJoXenyoZL/+gXGWS3Bia21pNLT86z0pbgSLznhk+bvBPH1pxPV/QbDoxsb5eTnGfN+4og2ebj0RycK5Q7CpJ1X0VFYSjmD5MzttZel3lF7uVy09/0Z7AmqRsPZdi9EbLoB/HOZON7xq6afJCg22ULT+kc4UC0tGgoTT6y7PiMonqO5di5rYmdcuPSJ/yivqSGb5g2pcq5ufP7zUGaU30/+y/OHr0aPHP4QXoacmOq7pixHAn/DrLE7XquKPH8Bn4Ps0LA3s3QxVDC6JYuPqgSwML45YUDu280CDnCuKuZeGP2CvIqNse3vXyj7MzHHzQsakWV2MuwaLrCAx3+hWzPGuhjnsPDJ/xPdK8BqJ3s9J7t3Buh44uRfpq2wb1sy4j9lrRN8i0SIqOxe28K1jT3x3Nmzc3fDrPxanMx7h2MV70fTPd/Yu4dMsG/9/emcBFWa1//Df7gsIAoRDKLpgLhBJuSWouqORaaS7pX6u/27W6V0NvBZgKVmZ5S6/iljfzqkiZ+y1Sw1JL+7MjGCqQoLigxCIgM8//vDMDM8My77Bo2Z3v50P5vvO+5zzPc37Pc87MvAd6BXeHVH8ONkPw5o7NmN+rAGlZ5ejcbyAMbjFbQgagmzobqZn3tGcEtt7wddVfIFCinUIMF/fOkGhPCKFUKiBQG+22E3kiZJAP6rzr0BfBPtXISr8A7VUCe7i7O7A7dQg7BGPS9CCUxMcgfN6LmDA0CN3GrkOOWgONRv9VYb17LMKMHRq+Ps3qicUoeBKmB5UgPiYc816cgKFB3TB2XQ7UGna/yVez/GMobKZ2GiKCZ8ggGKTbAX2DfVCdlY4LNZbZKrB3h7tD3Yg0w79WIFDBy8fZoAOVCu0FNaiutqQDe4yaMho23+3FgSJm0/UD2POtFCPZOUf9FU2iLkRy2lXUZG3AhAD9eLCfp6JOouLuBWTkGGdVDW/u67KkaWpy03G+1BWBQZ2NtNgffbuItf9WFyYj7WoNsjZMQECtPno8haiTFbh7IQMm5nBYaL/pmOpodi4bY268mOaCJ01HUEk8YsLn4cUJQxHUbSzW5ahZPmlwjycGqLlkUS1qDgIbJRSsQlaa+WZSC4/t7M0n0s+XwjUwCJ0NxqN/3y7QWd8G+fKQ1Cq++aYpLNW4QOUFH2dDHVKp2kNQw15sVs62kFbVI3M1mDshgL27O2rTkS8eF66ZmbeDjZ+hb219ao9hk8PQIW0v/p3EDC0/gd0Hf8OgSePgYlo6TNEUIyOzAHa9gtHdYCCGvLkDm+f3ssymlsbb0vrXlJZaqHN9pXoQSOHk+wT69m1qs4Q9Rnx0Gkkjd+Hz+EP4+thmvPH5WqwetwGJcbOMCmjTCOQKKIwHWCRmEiZWUIBqbgIQS0wdFoggZic0GjXIfjQ+Op2Ekbs+R/yhr3Fs8xv4fO1qjNuQiLhZdvobjJBIITHuizXEHVK9ca6qYmG37Y0pi2fgMRMfhGjf1Zt/AO7VsKFlfkgE+hPGVEPnlmkrAua3GKwQqnXGCCQS/WRoQMB8bxKBHArTQELMLicukBzsXpHYYI+mMA6zBk7H7rvdEBLSGz1DZmLiM6fxZni2/gpGvXsswowd/H2a09NMyL+YhYHTd+NutxCE9O6JkJkT8czpN2Fsci28Y2jfwYx2vOomwKYRQK5Q1BUNDpHOUW4UUcj0z2erQMRiUxdey+7hp56YWdxN9M2NaT3nmjPC7YZNxViHCdj7VQFGivbgu/Zh+PdwLtf0OmvQPelPVUE3JFOweMZjpvEVtkdXb5YPRpvseXNff6pJatQsB4Xa6+tg2pTL9N5WVbFMtEXvKYsxw1QgzJyu4MwxxQL7k+uPqY5m57Ix5sZLU8i0OhDTd99Ft5AQ9O4ZgpkTn8HpN8OhlQxfDCysRc1B8lgP+Eo2ISP9BjRPuZrkBzfh5cZHY+OvwZgzvyd+etmM7WxBoVaz0JoaD7lcpve/DfLlYalV+qNmY6HGOc2avlqrDws0z0uDgtCG9chcDeYQsLbFhvb44kGnzczbprS2PikHT8G4ztsRv+sMFoXswZGqYfhgTMd6+VKfe1xKM41KGo2RRTa1ON4WaCGda74pLbVM5+bj8QDR3DqLXWv34lqv2VgWuw+ncwqQuuYplB3egUMWblJT52chq0x/wChLT8clkRf8usjh7ukG8ZV0pN82aqsiFWm/AJ083PHb2V1Yu/caes1ehth9p5FTkIo1T5Xh8I5DjW40UhdcwC9GfZWmpSFX7Alfk6QVwYX1qyyvgF2/KZg+fbruZ+oIBHr7wd+H/5NOoaMH3GyLkZN9rXYJwGr3eWyeOxWRR+XwdBPjCvPT1K00/IJO8PCsPy1aiDofWaaBRPolEbz8aj8JMUaDK3HrsfvmEKw9ew7/2bUJqyMWIKzjPfzGbKpdH7eIJu3wxjWePs3qqTAfcet34+aQtTh77j/YtWk1IhaEoeO937hp2RBnLXxjqMLtZmqnIWrkZ2XB4GkZ0tMvQeTlhy7CK82wVY+mBffUhys0VI2qu4ZSW33tGm5adLOFyAdi6oRHcWbfdmyN+x6PjJuKwTa6l0Ssf6qugqH7aly7dlNnu8iF6V6J8go79JuiHw/2M3VEILz9/OFj8mmomCf3PRssHusjdu8CT9lVZGYUG2JXlY0LeWxCYIhcPOGmLEeFXT9MqdXH9KkYEegNP38f3adBAqNpoFn2Pxg0V+KwfvdNDFl7Fuf+swubVkdgQVhH3NMnFF8M2AVtXouETiMx/ikZTu/Yjgw2t5lQlYxt0SvxycFfoOaxnbOti6cMVzMzUGwwHtkX8nTfVLVFvjwUtYpvvhE0uVixSOPmaK3m73s9MlODG1k58cXjEScz8/bBq/oTHK2vT5D1xwsTvJB3aAdW7zgKjHwBox30rzWF0BEebrYozsk2mqNqcH7zXEyNPNp6mxjGJc+EVte/lumcr9U25B5KrmQhIyOj3k8mzv9aAqHgIvatXICFyw8jn9tkWvMbCn69hWoHN7jZWWYm3T6I6PA4XKhQozx7NxYt+wqC0OkY11EIx7BpGK1MQPSCWJwtZiWu4iK+CI9EXHlfTH72MYgv7sPKBQux/HA+K4Nc9wX49VY1HNzc0Fj3dOcQYv6+D7mVGpRl7sBflx2EZNR0jHnE9GK70GkY73QOH86PxrcFrGX1DZxZMxPDB43DipPl+qvMoByMyeOccebjpdieUcqKYykytkdh5ac/o9TOC2HTRkOZEI0FsWehc+sLhEfGobzvZDzrV+9tl6XQbRyMDkfchQqoy7Oxe9EyfCUIxfRxjb9b5D7NEVTfQG7uHZbYatz6eQsWLjuAO9w7OL6vIM1hxg4pT5/m9SSFRCxA9Y1c5N5hyay+hZ+3LMSyA3e4t4yG3bR6zI/hXQiaqZ2GEG4fjEZ43AVUqMuRvXsRln0lQOj0cegoFDfLVh0tuccUocod7vY3cXzPfuQyp6ryj2L5miMo4fuYoVlIETz1OXieWo3VP3TGxCn9oPveRwiVuzvsbx7Hnv253Igi/+hyrDlSov+Uww6h08bD6dyHmB/9LXRDcgZrZg7HoHErUD+tzOe+X71PDxrBfhRmTrTHsVWvYmtKCdSVeTjwVhT2XNVPBHahmDbeCec+nI/obwuYtWrcOLMGM4cPwrgVJ8GZI5DKIKUy3LnDLa+aZ/8DgfsUR1CNG7m50EnmZ2xZuAw6yTDF8MUAjvy1qCYbR2I3Yu85C/+IkLAzpkW+hh4ZK/HstNU4eoHVP3a6quB7fPI/U7E6qyvmRcyEh4zHdu6RmZkTYX9sFV7dmoISdSXyDryFqD1X9QuR1ufLw1GreIQlkEImJZTduaN7E2CMBRo3T+s0f//rkbkarL/EGL54mJ237fWN6Gh1fWJ19IkXnkXXS1ux+oAUoyYPg+nvLmkMJQZPHgfnMx9j6fYMlLJ3XaUZ2xG18lP8XGrXBjYJIJVJQWV3oC15JrS+/rVI5/pnd+8rug1q2nmqkR8B2Uz4nF11j3I+n03+KhGJ5O3JViEhiVMwLdiba/QAeNNoH/i270OjQlxIKpGSRCgj10FL6FBh7QPOarqWEEnD3RQkEMlJKROT3DWEXou/rHsY/14OfT7bn1QiEcnb25JCIiGn4AW0N5frveEGNWWXMTRjsAvJ5HLWl4ScQ/5OR69yfdXbCc6ObyZGU5iXDQmFUpKzfgXyTjQ0IoGKzD5AbkBdfJJiRnuQQiQlJYuLUOFBo9/9QbeDVX2NEiKHk5tCwOKmJJlYTq4hr1H8Zf0WAxYXhctsOqTbwcIG4wda5Kegfqt+qYvrna1hpKjdGard1GJPfUaFkItUwmIpJJnrIFpyqFD7ILp2s5miE71y1LBRQH0rgZb2cSAx88+mnZykDgE0NXoJhapUNHZbkW5TW717eOGzg6dPtVk9qelWwlLq4yAmodSG2sml5BAwlaKXhJJKNZa2Fd0z2fTBejM/hma1w4dOW/Z9RlGIC9Mt81Uoc6VBSw6RTrqW2aro9AoZwst3jyXCq6L0DRPISyEkMdOVXOlBYW/PoydtjDaEKFxodp2wWBiSIyhQEUgRyTrtWURNJkX3kZGkdySlGN9WlU4bJniRQsjyVMny1SOM3p73JNnod8+T+iYlRoeRl42Q+ShnuheQvNNQikjgxr5hDprNfQtQ3zxBy4Z1IjnLdSkbX8e+M2h8D2XdbyJQ30yk6DAvshEKSSqXkVggp05DIyihNtZ3j9NrvjISydpTz0WJvPY3HNOW5rLRBjVz46W+RQlL+5CDmNlv047kUgcKmBpNS0JVpBq7Tatzvhjw1SIq/ZTGyCTUOypVd2wRaipMWE7ju6lIIhCRrJ0NSVmetfceSW8eyNP5bYHtXLxPLBtGneRCbY5JHPvSjPE9SKnfoNaqfHmYapVZ7tLx13xJJpJR+56LKLFKV5tqd9DzabyBPplfyRGBpAiM0B2a1Twf97Me6fxssgZrfxuDgjq9cpSMZzC+eJibt7Xrldo8Zd63tj7RvXRa/oSUxF4L6JghBOZRF9PJmNHkoRCRVKlg6xgFeYx+l37QLSzM22RBvO8ef418ZSxn2/ekRYmFJlri0wKvllqgcwH3H7bo/MOgKStARtpF3BE6wTfgMXSU61/g4damkegc6Yq9OR+hR3Yqrsq8ENDNGQ1urylGTnImiuCMrv4+cKx7OJtDg7KCDKRdvAOhky8CHuvY8H5jNGXIS0pGgcQLj/s/yt4rmUFdgtzUdOSXyeDa3R/eDiYdW0ANii8mI6NQjQ5dA+HnZHp/TXEOkjOLAOeu8PdxNDwU31xubcLIzpFw3ZuDj3pkI/WqDF4B3eDMNw7snWteSgryKlXwCeiBR80GwwIsscOCPs3pSVOah5SUPFSqfBDQw3j8NLi6bji8Yjxx98om/TmG2TFspnbquIVNIzsj0nUvcj7qgezUq5B5BaBbvYA3bWvTtOSe+lTfyEZS9m207xKIbh0f9B8nqMaN7CRk326PLoHd0Fj36pJcpKbno0zmiu7+3jCbVmZz3xIqUXQ+BTnlTujeywuqBp/4qFGSm4r0/DLIXLvD39vBJA81pblISvkVGld/POGp2wfQLPvvOxqU5qUgJa8SKp8A9Gg0ifli0Ia1yIQq3LiQhuyrFRA5eqNnN1e0M+nbEtuZ9UXnkZJTDqfuveBVz/gW58tDV6vMwOzMTUrBrxpX+Pf2bOSbKfMat4TWaP7+1CPLanDj8MXD/LxtQmvqk+Y6Pp3wGN73O4Skd/s2a0xqii8iOaMQ6g5dEejnZHpvq2omy8ncJKT8qoGrf294NvI1Z6vrXzN0/odb7LaUusXupc0YZdkqw0pj1BXuS9j8ewbyd7WjCmfCe2HQgTBUZt7vv3JjKLSXNo+ycIFsxYqVPwz/NbXqz8rDXYO5R3HuJq3AiGGHMDrxeyzt1sLHF//kNPK+/OFEIBBCJBQ0/VC0FctgARSKhOx/v3Mgfy87qk7gVT97hHxwBf7PT9CfvJ8wzQpFEDI/rdK1YuUh5L+mVv1ZeYhrcM1ZRPS2hUPw+6h8OQbzrAvdJvnTfLJrxUrbUIFrWdkoELiih18H/YYpK1asWPmjYa1VVtQoycvE5UpndKv/CIIVE6yLXStWrFixYsWKFSt/Wv40jzFYsWLFihUrVqxYsVIf62LXihUrVqxYsWLFyp8W62LXihUrVqxYsWLFyp8W62LXihUrVqxYsWLFyp+WB7LYrTi9EYvf3qk/4kedfwjLpo1AyJNDMGvz+YZ/uvAPRpP+qfOwP+ZvWLz2GK7r/i5l26C+jK+iF2Pt8Vv6E+YpObkOi9/Zqz/6Y1H2wz+xOHKX/ui/g1qfz//Rhd0sSnBy3WK8s/eC7shYcxWnsXHx29iZ0YTDzdTz70sFTm9cjLd3ZuiP7zMlJ7Fu8TvYe0HNDnj6bnUc1bj8VTSrV8f1xw+KGmTsjMBf/74FP5XqTz1EqC9/hejFa3H8VhsV+YcqH1pGVX4azrdVvKxYsYAHstitzv8JR75O0R/xUYGDb8/Cyu/F6D9+HIb1dP7Df/zclH+Vp9bijegEkH8vdGhLJ9SFSNy+DnHn7uhPmEODsuR4rNv2oCcwy6jK+xFHvknVH/03oEF56hf4ZFMCLv+ZFruaMiTHr8O241e4A1PNVefjpyNfI6WIW7A1QrP0/HtTjfyfjuDrlCL98f1FU5aM+HXbcPwKJxaevlsdRzUKE7djXdw5/fEDongfYhavw8+qIATw/1H/PxzqwkRsXxeHc3fa6BcbPVT50HzUl/+JcUEvYme+dbFr5cHxQNaRqklbkP6jhX/dRVOKwsJSuIx8Hcv+thAv9LH/wy92G/dPjSvX7TFpww6sGKzSn7NSH8cpnyL9VLT+yMqfEtUkbEn/Ee8O+TP8JlAVJm1Jx4/vDtEfP0h+z77vH5V5ZfD4yzZs/1uA9XfF/hdAZddxo8y60LXyYHkg68iSL/+C/sOi6v49cNpqfL7qOTzurIRE5gC/0CXYn68GalKw5tlReO9sNYq+XID+/f6CL0uA6sv7ETE+EI+2k0Cs6IDHQl/HzswKbXtAMfbOG4gpS9/GxMccYOMQiDcO7MJfBk7Dqm1RGNf9EcilNujUby7+fT4dO+YOhHt7KaT2vhi9MhG39Tmnuf4dPpjxFPw62EAiEkPu6Ish83fgfJXuddTk4/DySQh2V0EmUcCp+zN462A+W9Ka+sehszcIITPewcqXnkagsb0lX2ptW/35Kjz3uDOUEhkc/EKxZL+urUapSMdnC5+Gr4McUjtvDF36Da4bf4igKcKJ96YguLMtpGI5nLqOwOv/Po9K/ctm0drzAmK2RGK0rz1kMhU8B76E2HMs8Fo0uP7dB5jxlB862EggYu07+g7B/B3nURuakh8/wYwBXeBkw+Jq54ag51Yg4VpdYPHdBzPwlF8H2EhEEMsd4TtkPnboA1u8dx76hy7X/ptDU3QC700JRmdbKbvWCV1HvM7GTe9J8V7MGzgFS9+eiMccbOAQ+AaOs7Ca10cFDv61P/pM24SLjQa4BF/+ZSCmrf4cq557HM5KCWQOfghdsh+cJLVUX8b+iPEIfLQdJGIFOjwWitd3ZrKWdeg0vQrbosah+yNsjGw6od/cf+N8+g7MHeiO9lIp7H1HY2Xibf0dDCrGDyvC4GfPYmbrgSdfikVS7Ve4jfqpQdGJ9zAluDNspUyfTl0x4nXWh0WDzME3jro4vBCzBZGjfWEvk0HlORAvxZ5jr+hpqc44jfUfhqjEat0xn5554s2H2RrDwaNJjpr8w1g+KRjuKhkkCid0f+YtHNTez8WpP4ZFJeouRDUu74/A+MBH0U4ihqLDYwh9fScM6d56WwzU65u3LvC1XYH0zxbiaV8HViPt4D10Kb4xacCYchx7ayj6z9oO4w/kqn+MQdjAudhdVH/xwpNXzLbdcwZgzLtnIQyciRVLxsCDUvHhhAGY/a9fdS00O694cqRF9aMhFemfYeHTvnCQS2HnPRRLv7kOk6g1N0/4xpFHY9xjIPmHl2NSsDtUMgkUTt3xzFsHtXHWXN+NOQPG4F02p9ZSk/ohJgyYjX/9yo2ZfpxWbUPUuO54hPlk06kf5jJ703fMxUD39pBK7eE7eiUS6yZL8/6Z07ymcAfmvLgJWVU52DZtAGZszWV38PlnxUobwP1RifvNzdhQkneYYfi3vB15Pr2UPjtxls7sX0Ghj0rIZeZXROprdHrXh/Ridyk5DQ2nf245QueLT1J4TyXZPT6bPj50is4kbKXXBziR1GMW7buu1t6zfqiUhMoAeuWzk3Qybg8lZm2gUJmEFO4jKCr+FCUlrqfn3CVk6+hGT7y8kRJ+OkPxb/Qnlbwfrcqq4ayiPVOcSd5lMv3j6FlKSztD+98fTx4SFY3/7BZ7vYqSlgdTO7tAemnDN3T23DGKndWTbFQjaN2lGhP/qJzH3puxFCqXUzvPp2npZyfo7Jn9tCL0UZK4zKSvSnVNmFJGx171JdkjT9Lf/nWCTp/YQeGDnEkskNCA93LY6/co7b0QUtn3plfWH6YzSafoi5VjyVPpQ3MO32avq+nKPwaTwmOetrUGcPbIpCR/5HGa/c9v6NR3O2npYGeSuP0P7eNcv7mHpjjLqcvkf9DRs2mUxux9f7wHSVTjSRuaez/R33vaUNcZsXQsKZ3+7+gHNN5NSp1eOsws526fQs7yLjT5H0fpbFoaG+/3abyHhFTjP6NbzLZr64eS3GU2ZwlrK43eC1GRfe9XaP3hM5R06gtaOdaTlD5ziHNFfW09DZUKSRnwCn128iTF7Umk66U88aZK+v6jl2h25D66wh024CbFhspJ3s6Tnl76GZ04y8Z+RSg9KnGhmdoBKaeT4T1Jacfi8/EhOnUmgba+PoCcpB40a9915gEXwlBib4DIfUQUxZ9KosT1z5G7xJYc3Z6glzcm0E9n4umN/iqS91vFrtb5LBWIyD5oHm1KOE2JO5fS4I4S8njpIBVzVzTiZ2HKexSisqfer6ynw2eS6NQXK2msp5J85hwmbpR54RtHbRxkJJU/Qo/P/id9c+o72rl0MDlL3Oh/tELg0Zn6Cv1jsII85n3Lrq2nOa3mO9CMr+6yAz4988ebD7M1hnvdrCYZVUm0PLgd2QW+RBu+OUvnjsXSLKZx1Yh1dKlGp5cOM3RtlZ8Mp55KOxazj+nQqTOUsPV1GuAkJY9Z+0iX7q2zRX3lHzRY4UHzvq3krjbqmy+O/G2XHXuVfGWP0JN/+xedOH2CdoQPImexgCQD3tPeX5/i3ZPoEUV/eldbMzkq6fhfvKnd4I9YXPSn6uDJKyO9cJ5pqfqe/uqrMNjfrLziyof5HGlZ/ahH2TF61VdGjzz5N/rXidN0Ykc4DXIWk0AygN7L4YLAV4/rwz+OfBqrSlpOwe3sKPClDfTN2XN0LHYW9bRR0Yh1l+rpR0fV938lX0Wtvbq8lyjcaURUPJ1KSqT1z7mTxNaR3J54mTYm/ERn4t+g/io59VuVxa7n98+s5ktTad8Kbm7tTGMjY2lf8m1e/6xYaQt+l8WuTBpCay7XqriKTiz0JvkTK3SH6kL65GkFeS44pi2CpXEvkKOiH8WcN1RTdeFWGqNS0pCP80itXezKSD50HRXUNqlfwHHFQndXJX0zx40k7nPoG26+ZagLP6Gn5S40+yA7oS6iH3eupW3fGU2mVYn0Whc5PbEik2qqTtBCbxn5v3mOWaun7FtaMXU2ffJjpYl/vPbqbQtZc7mur6oTC8lb/gStyDTcU0dpPE1zUlDIB7W+sPYKNtJIW51/VJlAc93l1Dcmq+51roDtmOhAtmO2EecR/2JXRn2iMwztF26mMJUtPbOliO4V/Ug7126j74yqTlXia9Sl1t678TTFoT0NXPF/dEd7SQ3lfr2R1n2VTqWs76Ifd9Labd8ZFa0qSnyti3a8M2tMF7uVCXPJXd6XYuomU8bNHTTRwZbGbGOecJOVTE5D1xXUxY433vpzTaNf5IWsIYMkufHWjT3rgF5wVFC/mPOG+DKNbh2jIuWQjymP3aPTdO3kwaj8hua4Sch9zjekk5uaCj95Wu+nzmeZ/El6P7u2RTUVbBxJtmzh+S+2CmnoZyUlzHUned8YMg3NRHKwHUMsNLyo+cZRHwdZn2jKqDOrkDaHqcj2mS1UVMGjM0sXu3x6tiDefJivMXya5Iaf5aPMn948V5ftLN1X0NTZn9CPlcYLzlKKe8GRFP1iyCA/NtZbx5BKOYQ+Zsa21pYmF7t8ceRtu5TipzmRIuQDqpUta4A2jrQlaROLXfptH81wkVHvqFS25GGUf01z3O0odMMV1lt9ePLK0sWuxXnFnyNtUT9K46eRkyKEPjAETZe7tXby1uN68I4jn8buavUk83+TDHIto29XTKXZn/xo8WKXG3NDmOeQm8Sd5hgmSzYny8ll9kGL/DOvebZcTo2i3gp/euv/OBXx55AVK23B7/I4rEDlBR/n2q6FUKnaQ1Bj+JrFQA0upWWhvHM/DPQS6c+xOzqEYEA3NbJTM3FPe0YAe3d3OBh7I7CFt68rdHcJoGyngNjFHZ0l2hMQKpVQCNSo4b5SE3ZA8KTpCCqJR0z4PLw4YSiCuo3Fuhw1NBoN1MUZyCywQ6/g7oa/PW0zBG/u2Iz5wcZPmVlor0AFLx/DxjuhSoX2ghpUVzf8CrEmNx3nS10RGNRZ7wvXXn/07SLW/ltdmIy0qzXI2jABAT16oIf25ylEnazA3QsZyGksrPUReSJkkI9R+30R7FONrPQL0HQIxqTpQSiJj0H4vBcxYWgQuo1dhxy1hsWG2SsfjBenu+Hnt4PwaKcADJu+BF+WBuO50d3RjnnYIXgSpgeVID4mHPNenIChQd0wdl0O1Cyu3O0G1ChMTsPVmixsmBCg94P9PBWFkxV3cSEjB1pXBPZwd3fQx85SffAhgMrLBwZJqqBqL0BNdTVqLqUhq7wz+g30qosPp5eQAd2gzk5Fpr4Dga03fF31VwiUaKcQw8W9M3RyE0KpVECgNuxIE7n3xQCPuoijQ58n4F15HmkX9ANm7Ke6EMlpV1GTtQETAmrHuAeeijqJirsXkGHBIAv5xlGLCJ4hg+BjEAL6BvugOotpML8NdMbg07Ol8eaj6RrDp0kNijMyUWDXC8HdDX9p3mbIm9ixeT5M0/0S0rLK0bnfQBjkx9oPGYBu6myk6o1tuS26OxqDL468bd/LRfr5UrgGBqGz0Xj379sFtS00oP0wTA7rgLS9/0YSk3L5id04+NsgTBrnwnprjKbzylIszitLc6RV9aMGuennUeoaiCBD0NChf1/Uhr259Zh3HPk0ll6EjMwC2PUKhkGuNhjy5g5snh+sP+ZDAFtvXxjC3A4KsQvcDZMllAoB1GyytNQ/i+d4C3PIipXW0niNus8IRCLDRKZFoP9/Q6q5QiaWmBZggQhidkKjUeuflRJAJBKbtiKQQKLP1ToE7Dr9P03QFCJuVhCCnn8H8cnFkHmFYOaySDznpg/PvRq2FBNDJGnazlosspcdsxCY0GTLXIFhw8TdX4dADrlMf0dVFVsE2qL3lMUIDw+v+4lYHYttMc/D28SQJmDtKRTGUmD2MvuImxQL4zArKAjPvxOP5GIZvEJmYlnkc6gNDWCPER+dRtKRDVgU5omy05vxxrPBCHxuKy6xhVRh3CwEBT2Pd+KTUSzzQsjMZYh8zq1R4VVVsWJo2xtTFhv8CA+PwOrYbYh53lsXUy52YkO0LNMHH5x+mhiQavaGiLUuMe2A2aDtAGp9BwImtoZya1RtOiRSSIyDwNrjDqnWYBM/q6ALzRQsNhrj8IjViN0Wg+ctGGT+ceQQQK5QmIyNSCcEaNpCZxx8erYw3nw0XWP4NXmPewfM/OZP92q2AODkZ+q8gNUiMetHoze2NbY0CV8cedtmNY25KTRtAHK5rM66higxeMo4dL4Qj11nipGw5wiqhk3GmI5NWWsmr/SYDie3wDc9Y3leWZgjrawfNbqgmVwvkMtRF/bm5gnvOPJpjL0h18pVYmbc6nnB8sg0zAI2VzaIMheGhljon+VzvGU5ZMVKa+Gtqb8vYrh7ukF8JR3ptQ/Hc1SkIu0XoJOHJ+qnaEvQXInD+t03MWTtWZz7zy5sWh2BBWEdce831icrDEJHD7jZFiMn+xpLPz0157F57lREHryqP8HR9vaK3bvAU3YVmRnFhr6rsnEhj1UIhsjFE27KclTY9cOU6dMxXfszFSMCveHn72P6aXdTqPORlVWmP2CUMfsvieDl541rceux++YQrD17Dv/ZtQmrIxYgrOM96EMDza2z2LV2L671mo1lsftwOqcAqWueQtnhHThUmI+49btxc8hanD33H+zatBoRC8LQ8d5vXBkz+KNFBBcWO2V5Bez6TdH7wX6mjkCgtx/8fWo/jTHm/utD7M7iK76C9PTbRvZWIFXXATxb2IG64AJ+MQp5aVoacsWe8G1s1ShygaebEuUVdug3pXaMp2PqiEB4+/nDh3eQNbjCM4461MjPyoLBrDLm9yWIvPzQtXMb6IzBp+f7Fe86NFd4NCmEo4cbbItzkF27yZJRc34z5k6NxMGrhnPMWDYuYlxJT6/b6MpRkZqGX9AJHnzG8trSNHxx5G2b2d7FU4armRkoNjSA7At5bBncNLL+L2CCVx4O7ViNHUeBkS+MhoP+tebBFkMiQnXVXcNSrPoart0057UZWpQjza0f7PounpBdzUSGIWgs7BdQG/bm1mPeceTTmLczPNxsUZyTDYNca3B+81xMjTzIDGJxpmpU3TUsGquvXUPLw9wGdUBgtPBtbQ5ZsWIhFk5Rvx+OYdMwWpmA6AWxOFvMCkDFRXwRHom48r6Y/KxfvXePLYR7Zy+oxo3cXNxhCae+9TO2LFyGA3dY3amqBJSDMXmcM858vBTbM0rZ4qAUGdujsPLTn1FqZ69vREeb22s/CjMn2uPYqlexNaUE6so8HHgrCntqJ127UEwb74RzH85H9LcFbLpS48aZNZg5fBDGrTiJct1V5qHbOBgdjrgLFVCXZ2P3omX4ShCK6eM6QsrecQuqbyA39w4rxmrc+nkLFi47gDvcJyksNELBRexbuQALlx9GPrfJu+Y3FPx6C9UObnCzk0IiFqD6Ri5ydYHFz1sWYpkusA12J9uFTsN4p3P4cH40vi1gjalv4MyamRg+aBxWnGzcE/541yD7SCw27j1nNKk3A8cwTButREL0AsSeLWatVeDiF+GIjCtH38nPwq+FAqQ7hxDz933IrdSgLHMH/rrsICSjpmPMI42lpB1Cp42H07kPMT/6W+hCcwZrZg7HoHEroAtNJTIPxiL2y2TU/fYEI7hPTsyNow7C7YPRCI+7gAp1ObJ3L8KyrwQInT4OHe3bQGccfHq2JN6VmTgYG4svkxvzlA/uU2PzmlQOnoxxzmfw8dLtyChlC8PSDGyPWolPfy6Fnb3x+DgibNpoKBOisSD2LHTy+wLhkXEo7zsZz/KKg9+WJuGLI2/b9hg1cyLsj63Cq1tTUKKuRN6BtxC156ph0dUY0ifwwrNdcWnrahyQjsLkYS38xbhCFdzd7XHz+B7sz2WCrsrH0eVrcKSkpZ/kWZIjDWluvbYfNRMT7Y9h1atbkVKiRmXeAbwVtQd1YW9uPeYdRz6NtcfgyePgfOZjLN2egVL2zrU0YzuiVn6Kn0vtWJjd4W5/E8f37IcuzEexfM0RtDzMra8DAqkMUirDnTvMGYtyqJU13IoVDv2zu/cV7oF14w1qCpfZdEj/7Du3uzM5IpAUgRG6w3ob1LiH1a8lRNJwNwUJRHJSysQkdw2h1+Iv6zZJaDeoKajTK0cNGx24DTEKF5pd10kV/bDIjxT9VtEvtQ/B39lKYQr9phn1LUpY2occxEKS2rQjudSBAqZG05JQFanGbqMiNbuk+CTFjPYghUhKSoWEhAoPGv3uD9pdvsb+8drbwDYWgeQIClQEUkSy9ooGqG+eoGXDOpFcKCGpREKOfWfQ+B7Kuo0c6puJFB3mRTZCZr9cRmKBnDoNjaAEznBmD+8GNbk99RkVQi5Srn0hyVwH0ZJDhexOdvetBFrax4HEQinZtJOT1CGApkYvoVCVisZuK2LX3KOcz2eTv0pEInl7smWxkTgF04K9uVTDXr2VsJT6OIhJKLWhdnIpOQRMpegloaRSjaVtRfdMfxsDu/5mYjSFedmQkPUnZ7ETyDvR0IgE3RhwG0wUneiVo4bNFtw9ZuNNpfTpGBlJekdRaqPh5TZoKMhl9iH9phfGvWSKCFRQYESy9lB9LYEih7uRQiAiuZLFV+5KIa/F02V9ew00XfUDLfJTUL9Vv9Rt4rizNYwUWo3oNqgpu4yhGYNdSCaXk4SNq3PI3+noVd1mjEb9VN+kxOgw8rIRsljKSSYWkLzTUIpI4MaA4zptGMH8NNa4EfzjqNv8ZN9nFIW4SEnCtCCUudKgJYeoUNeBeZ1Z/NsYuHZ49MwTb7q+gUbIJNr4Nob5GsOnSc5ZNRWfjKHRHgoSSZWkYDmh8BhN7/6gzXbDJjEOVn8SIoeTm0LA9K9k4yIn15DXKF5vbGttafq3MbC7zcbRAj+Zpk4sG0ad5ELteEsc+9KM8T1I2dQGNT330pfTE1IxebEaXedWAzhbzedVVfoGmuClICGLmZLFziPsbZr3pI3JBjXL84rBkyMtqx/1YZlyYhkN6yQnoYTlicSR+s4YTz2Uho105utxQ/jygU9jbHKikzGjyUMhIqlSweoJy8PR75JWrmzuS98wgbwUQpZHSpZPHhT29jx60sZ4g5rpOFX9sIj8FP1olWGypK1hCiPdmffPvOYZd4/Ta74yEsnaU89Fifz+8dZwK1b4EXD/0a97/9jUFCMnORNFcEZXfx84GvaOtBHsHXFeClLyKqHyCUCPR5X688bUoPhiMjIK1ejQNRB+TmaMaHN7K1F0PgU55U7o3ssLqgYfAKpRkpuK9PwyyFy7w9/bwbCZzhy3NmFk50i47s3BRz2ykXpVBq+AbnCW61/n0JQiLyUFeZUq+AT0QGOh0ZQVICPtIu4IneAb8Bg6Gt2vKc1DSkoeKlU+COjxKAy3a3B13XB4xXji7pVN+nMMdQlyU9ORXyaDa3d/eDtY4Ml91wcb+5xkZBYBzl394dMWHWjKkJeUjAKJFx73N45L06hLcpGano8ymSu6+3vDODSa6xsx4WVg45f/i0YfozQ7jrewaWRnRLruRc5HPZCdehUyrwB0MxECRwt11gA+PZuLtwbXN07Ay9iIr/63o/5c82hak0YwTV1MzkChugO6BvrBfLrnIFlnLPx9HJsVE4tsaRLzcbSk7cqi80jJKYdT917wajgQDdBc/xQTHnsffoeS8G7flo1+HdU3kJ2UjdvtuyCwW8c2+aMS5nKkSZpbPyqLcD4lB+VO3dHLS9XIV6TNzRO+fODXWE3xRSRnFELdoSsC/ZxMXq++kY2k7Nto3yUQ3Tq2SZRbVQc0pblISvkVGld/POFppz3XmhyyYoWPh2exa+X+ULfYvYTNo+ovbO43VTgT3guDDoShMtPCv7BnpQkqcTpqCrZ1XYsNkzu34Pkkw2L30uZReNBKaBaVpxE1ZRu6rt2AyZ2b76mVlsJ9h3wXSStGYNih0Uj8fim6tfAxHitWrFh5kFhniv92BAIIRUL2v6b38t4Xqk7gVT97hHxwBf7PT9CftNJy5OgTsRexLVrocgggEIogZDp4wEpoPvI+iNgba13oPmBqzkagt60Dgt+vxMsx86wLXStWrDwkAP8PxvYr8TKiH/0AAAAASUVORK5CYII=;" vertex="1" parent="1">
          <mxGeometry x="530" y="10" width="699" height="161" as="geometry" />
        </mxCell>
        <mxCell id="TP16WEpkgP-LbKeWSAi--2" value="PASAJERO" style="whiteSpace=wrap;html=1;align=center;" vertex="1" parent="1">
          <mxGeometry x="590" y="295" width="100" height="40" as="geometry" />
        </mxCell>
        <mxCell id="TP16WEpkgP-LbKeWSAi--3" value="VUELO" style="whiteSpace=wrap;html=1;align=center;" vertex="1" parent="1">
          <mxGeometry x="1141" y="295" width="100" height="40" as="geometry" />
        </mxCell>
        <mxCell id="TP16WEpkgP-LbKeWSAi--4" value="AVION" style="whiteSpace=wrap;html=1;align=center;" vertex="1" parent="1">
          <mxGeometry x="1141" y="440" width="100" height="40" as="geometry" />
        </mxCell>
        <mxCell id="TP16WEpkgP-LbKeWSAi--5" value="AEROLINEA" style="whiteSpace=wrap;html=1;align=center;" vertex="1" parent="1">
          <mxGeometry x="1141" y="660" width="100" height="40" as="geometry" />
        </mxCell>
        <mxCell id="TP16WEpkgP-LbKeWSAi--6" value="PASAJE" style="whiteSpace=wrap;html=1;align=center;" vertex="1" parent="1">
          <mxGeometry x="850" y="295" width="100" height="40" as="geometry" />
        </mxCell>
        <mxCell id="TP16WEpkgP-LbKeWSAi--7" value="compra" style="shape=rhombus;perimeter=rhombusPerimeter;whiteSpace=wrap;html=1;align=center;" vertex="1" parent="1">
          <mxGeometry x="730" y="300" width="80" height="30" as="geometry" />
        </mxCell>
        <mxCell id="TP16WEpkgP-LbKeWSAi--8" value="del" style="shape=rhombus;perimeter=rhombusPerimeter;whiteSpace=wrap;html=1;align=center;" vertex="1" parent="1">
          <mxGeometry x="1010" y="295" width="80" height="40" as="geometry" />
        </mxCell>
        <mxCell id="TP16WEpkgP-LbKeWSAi--9" value="su" style="shape=rhombus;perimeter=rhombusPerimeter;whiteSpace=wrap;html=1;align=center;" vertex="1" parent="1">
          <mxGeometry x="1156" y="370" width="70" height="40" as="geometry" />
        </mxCell>
        <mxCell id="TP16WEpkgP-LbKeWSAi--10" value="pertenece" style="shape=rhombus;perimeter=rhombusPerimeter;whiteSpace=wrap;html=1;align=center;" vertex="1" parent="1">
          <mxGeometry x="1131" y="525" width="120" height="60" as="geometry" />
        </mxCell>
        <mxCell id="TP16WEpkgP-LbKeWSAi--11" value="" style="endArrow=none;html=1;rounded=0;entryX=1;entryY=0.5;entryDx=0;entryDy=0;exitX=0;exitY=0.5;exitDx=0;exitDy=0;" edge="1" parent="1" source="TP16WEpkgP-LbKeWSAi--7" target="TP16WEpkgP-LbKeWSAi--2">
          <mxGeometry relative="1" as="geometry">
            <mxPoint x="780" y="220" as="sourcePoint" />
            <mxPoint x="940" y="220" as="targetPoint" />
          </mxGeometry>
        </mxCell>
        <mxCell id="TP16WEpkgP-LbKeWSAi--12" value="(1,1)" style="resizable=0;html=1;whiteSpace=wrap;align=right;verticalAlign=bottom;" connectable="0" vertex="1" parent="TP16WEpkgP-LbKeWSAi--11">
          <mxGeometry x="1" relative="1" as="geometry">
            <mxPoint x="30" as="offset" />
          </mxGeometry>
        </mxCell>
        <mxCell id="TP16WEpkgP-LbKeWSAi--13" value="" style="endArrow=none;html=1;rounded=0;entryX=0;entryY=0.5;entryDx=0;entryDy=0;exitX=1;exitY=0.5;exitDx=0;exitDy=0;" edge="1" parent="1" source="TP16WEpkgP-LbKeWSAi--7" target="TP16WEpkgP-LbKeWSAi--6">
          <mxGeometry relative="1" as="geometry">
            <mxPoint x="780" y="220" as="sourcePoint" />
            <mxPoint x="940" y="220" as="targetPoint" />
          </mxGeometry>
        </mxCell>
        <mxCell id="TP16WEpkgP-LbKeWSAi--14" value="(1,M)" style="resizable=0;html=1;whiteSpace=wrap;align=right;verticalAlign=bottom;" connectable="0" vertex="1" parent="TP16WEpkgP-LbKeWSAi--13">
          <mxGeometry x="1" relative="1" as="geometry" />
        </mxCell>
        <mxCell id="TP16WEpkgP-LbKeWSAi--16" value="" style="endArrow=none;html=1;rounded=0;entryX=0.5;entryY=0;entryDx=0;entryDy=0;exitX=0.5;exitY=1;exitDx=0;exitDy=0;" edge="1" parent="1" source="TP16WEpkgP-LbKeWSAi--9" target="TP16WEpkgP-LbKeWSAi--4">
          <mxGeometry relative="1" as="geometry">
            <mxPoint x="850" y="410" as="sourcePoint" />
            <mxPoint x="1010" y="410" as="targetPoint" />
          </mxGeometry>
        </mxCell>
        <mxCell id="TP16WEpkgP-LbKeWSAi--17" value="(1,1)" style="resizable=0;html=1;whiteSpace=wrap;align=right;verticalAlign=bottom;" connectable="0" vertex="1" parent="TP16WEpkgP-LbKeWSAi--16">
          <mxGeometry x="1" relative="1" as="geometry" />
        </mxCell>
        <mxCell id="TP16WEpkgP-LbKeWSAi--20" value="" style="endArrow=none;html=1;rounded=0;entryX=0.5;entryY=0;entryDx=0;entryDy=0;exitX=0.5;exitY=1;exitDx=0;exitDy=0;" edge="1" parent="1" source="TP16WEpkgP-LbKeWSAi--10" target="TP16WEpkgP-LbKeWSAi--5">
          <mxGeometry relative="1" as="geometry">
            <mxPoint x="850" y="570" as="sourcePoint" />
            <mxPoint x="1010" y="570" as="targetPoint" />
          </mxGeometry>
        </mxCell>
        <mxCell id="TP16WEpkgP-LbKeWSAi--21" value="(1,1)" style="resizable=0;html=1;whiteSpace=wrap;align=right;verticalAlign=bottom;" connectable="0" vertex="1" parent="TP16WEpkgP-LbKeWSAi--20">
          <mxGeometry x="1" relative="1" as="geometry" />
        </mxCell>
        <mxCell id="TP16WEpkgP-LbKeWSAi--22" value="" style="endArrow=none;html=1;rounded=0;entryX=0.5;entryY=1;entryDx=0;entryDy=0;exitX=0.5;exitY=0;exitDx=0;exitDy=0;" edge="1" parent="1" source="TP16WEpkgP-LbKeWSAi--10" target="TP16WEpkgP-LbKeWSAi--4">
          <mxGeometry relative="1" as="geometry">
            <mxPoint x="850" y="570" as="sourcePoint" />
            <mxPoint x="1010" y="570" as="targetPoint" />
          </mxGeometry>
        </mxCell>
        <mxCell id="TP16WEpkgP-LbKeWSAi--23" value="(1,M)" style="resizable=0;html=1;whiteSpace=wrap;align=right;verticalAlign=bottom;" connectable="0" vertex="1" parent="TP16WEpkgP-LbKeWSAi--22">
          <mxGeometry x="1" relative="1" as="geometry">
            <mxPoint y="20" as="offset" />
          </mxGeometry>
        </mxCell>
        <mxCell id="TP16WEpkgP-LbKeWSAi--24" value="Nombre" style="ellipse;whiteSpace=wrap;html=1;align=center;" vertex="1" parent="1">
          <mxGeometry x="480" y="230" width="100" height="40" as="geometry" />
        </mxCell>
        <mxCell id="TP16WEpkgP-LbKeWSAi--25" value="Apellido" style="ellipse;whiteSpace=wrap;html=1;align=center;" vertex="1" parent="1">
          <mxGeometry x="580" y="210" width="100" height="40" as="geometry" />
        </mxCell>
        <mxCell id="TP16WEpkgP-LbKeWSAi--26" value="ID_pasajero" style="ellipse;whiteSpace=wrap;html=1;align=center;fontStyle=4;" vertex="1" parent="1">
          <mxGeometry x="400" y="270" width="100" height="40" as="geometry" />
        </mxCell>
        <mxCell id="TP16WEpkgP-LbKeWSAi--27" value="Nacionalidad" style="ellipse;whiteSpace=wrap;html=1;align=center;" vertex="1" parent="1">
          <mxGeometry x="390" y="330" width="100" height="40" as="geometry" />
        </mxCell>
        <mxCell id="TP16WEpkgP-LbKeWSAi--28" value="Num_doc" style="ellipse;whiteSpace=wrap;html=1;align=center;" vertex="1" parent="1">
          <mxGeometry x="470" y="360" width="100" height="40" as="geometry" />
        </mxCell>
        <mxCell id="TP16WEpkgP-LbKeWSAi--29" value="" style="endArrow=none;html=1;rounded=0;exitX=1;exitY=1;exitDx=0;exitDy=0;entryX=0;entryY=0;entryDx=0;entryDy=0;" edge="1" parent="1" source="TP16WEpkgP-LbKeWSAi--24" target="TP16WEpkgP-LbKeWSAi--2">
          <mxGeometry relative="1" as="geometry">
            <mxPoint x="670" y="340" as="sourcePoint" />
            <mxPoint x="830" y="340" as="targetPoint" />
          </mxGeometry>
        </mxCell>
        <mxCell id="TP16WEpkgP-LbKeWSAi--32" value="" style="endArrow=none;html=1;rounded=0;exitX=0.5;exitY=1;exitDx=0;exitDy=0;entryX=0.5;entryY=0;entryDx=0;entryDy=0;" edge="1" parent="1" source="TP16WEpkgP-LbKeWSAi--25" target="TP16WEpkgP-LbKeWSAi--2">
          <mxGeometry relative="1" as="geometry">
            <mxPoint x="670" y="340" as="sourcePoint" />
            <mxPoint x="830" y="340" as="targetPoint" />
          </mxGeometry>
        </mxCell>
        <mxCell id="TP16WEpkgP-LbKeWSAi--33" value="" style="endArrow=none;html=1;rounded=0;exitX=1;exitY=0.5;exitDx=0;exitDy=0;entryX=0;entryY=0.5;entryDx=0;entryDy=0;" edge="1" parent="1" source="TP16WEpkgP-LbKeWSAi--26" target="TP16WEpkgP-LbKeWSAi--2">
          <mxGeometry relative="1" as="geometry">
            <mxPoint x="670" y="340" as="sourcePoint" />
            <mxPoint x="830" y="340" as="targetPoint" />
          </mxGeometry>
        </mxCell>
        <mxCell id="TP16WEpkgP-LbKeWSAi--34" value="" style="endArrow=none;html=1;rounded=0;exitX=1;exitY=0.5;exitDx=0;exitDy=0;entryX=0;entryY=0.75;entryDx=0;entryDy=0;" edge="1" parent="1" source="TP16WEpkgP-LbKeWSAi--27" target="TP16WEpkgP-LbKeWSAi--2">
          <mxGeometry relative="1" as="geometry">
            <mxPoint x="670" y="340" as="sourcePoint" />
            <mxPoint x="830" y="340" as="targetPoint" />
          </mxGeometry>
        </mxCell>
        <mxCell id="TP16WEpkgP-LbKeWSAi--35" value="" style="endArrow=none;html=1;rounded=0;exitX=1;exitY=0;exitDx=0;exitDy=0;entryX=0.25;entryY=1;entryDx=0;entryDy=0;" edge="1" parent="1" source="TP16WEpkgP-LbKeWSAi--28" target="TP16WEpkgP-LbKeWSAi--2">
          <mxGeometry relative="1" as="geometry">
            <mxPoint x="670" y="340" as="sourcePoint" />
            <mxPoint x="830" y="340" as="targetPoint" />
          </mxGeometry>
        </mxCell>
        <mxCell id="TP16WEpkgP-LbKeWSAi--36" value="Precio" style="ellipse;whiteSpace=wrap;html=1;align=center;" vertex="1" parent="1">
          <mxGeometry x="827" y="350" width="100" height="40" as="geometry" />
        </mxCell>
        <mxCell id="TP16WEpkgP-LbKeWSAi--37" value="" style="endArrow=none;html=1;rounded=0;exitX=0;exitY=0;exitDx=0;exitDy=0;entryX=0.5;entryY=1;entryDx=0;entryDy=0;" edge="1" parent="1" source="TP16WEpkgP-LbKeWSAi--36" target="TP16WEpkgP-LbKeWSAi--6">
          <mxGeometry relative="1" as="geometry">
            <mxPoint x="910" y="260" as="sourcePoint" />
            <mxPoint x="1070" y="260" as="targetPoint" />
          </mxGeometry>
        </mxCell>
        <mxCell id="TP16WEpkgP-LbKeWSAi--38" value="Origen" style="ellipse;whiteSpace=wrap;html=1;align=center;" vertex="1" parent="1">
          <mxGeometry x="1100" y="230" width="100" height="40" as="geometry" />
        </mxCell>
        <mxCell id="TP16WEpkgP-LbKeWSAi--39" value="Destino" style="ellipse;whiteSpace=wrap;html=1;align=center;" vertex="1" parent="1">
          <mxGeometry x="1200" y="200" width="100" height="40" as="geometry" />
        </mxCell>
        <mxCell id="TP16WEpkgP-LbKeWSAi--40" value="Fecha_partida" style="ellipse;whiteSpace=wrap;html=1;align=center;" vertex="1" parent="1">
          <mxGeometry x="1280" y="230" width="100" height="40" as="geometry" />
        </mxCell>
        <mxCell id="TP16WEpkgP-LbKeWSAi--41" value="Hora_partida" style="ellipse;whiteSpace=wrap;html=1;align=center;" vertex="1" parent="1">
          <mxGeometry x="1300" y="280" width="100" height="40" as="geometry" />
        </mxCell>
        <mxCell id="TP16WEpkgP-LbKeWSAi--42" value="ID_vuelo" style="ellipse;whiteSpace=wrap;html=1;align=center;fontStyle=4;" vertex="1" parent="1">
          <mxGeometry x="1300" y="335" width="100" height="40" as="geometry" />
        </mxCell>
        <mxCell id="TP16WEpkgP-LbKeWSAi--43" value="Modelo" style="ellipse;whiteSpace=wrap;html=1;align=center;" vertex="1" parent="1">
          <mxGeometry x="1020" y="410" width="100" height="40" as="geometry" />
        </mxCell>
        <mxCell id="TP16WEpkgP-LbKeWSAi--44" value="Fecha_fab" style="ellipse;whiteSpace=wrap;html=1;align=center;" vertex="1" parent="1">
          <mxGeometry x="1290" y="430" width="100" height="40" as="geometry" />
        </mxCell>
        <mxCell id="TP16WEpkgP-LbKeWSAi--45" value="ID_avion" style="ellipse;whiteSpace=wrap;html=1;align=center;fontStyle=4;" vertex="1" parent="1">
          <mxGeometry x="1010" y="460" width="100" height="40" as="geometry" />
        </mxCell>
        <mxCell id="TP16WEpkgP-LbKeWSAi--47" value="" style="endArrow=none;html=1;rounded=0;exitX=1;exitY=0.5;exitDx=0;exitDy=0;entryX=0;entryY=1;entryDx=0;entryDy=0;" edge="1" parent="1" source="TP16WEpkgP-LbKeWSAi--45" target="TP16WEpkgP-LbKeWSAi--4">
          <mxGeometry relative="1" as="geometry">
            <mxPoint x="910" y="570" as="sourcePoint" />
            <mxPoint x="1070" y="570" as="targetPoint" />
          </mxGeometry>
        </mxCell>
        <mxCell id="TP16WEpkgP-LbKeWSAi--48" value="" style="endArrow=none;html=1;rounded=0;exitX=1;exitY=1;exitDx=0;exitDy=0;entryX=0;entryY=0.25;entryDx=0;entryDy=0;" edge="1" parent="1" source="TP16WEpkgP-LbKeWSAi--43" target="TP16WEpkgP-LbKeWSAi--4">
          <mxGeometry relative="1" as="geometry">
            <mxPoint x="910" y="570" as="sourcePoint" />
            <mxPoint x="1070" y="570" as="targetPoint" />
          </mxGeometry>
        </mxCell>
        <mxCell id="TP16WEpkgP-LbKeWSAi--49" value="" style="endArrow=none;html=1;rounded=0;entryX=0;entryY=0.5;entryDx=0;entryDy=0;exitX=1;exitY=0.5;exitDx=0;exitDy=0;" edge="1" parent="1" source="TP16WEpkgP-LbKeWSAi--4" target="TP16WEpkgP-LbKeWSAi--44">
          <mxGeometry relative="1" as="geometry">
            <mxPoint x="910" y="570" as="sourcePoint" />
            <mxPoint x="1070" y="570" as="targetPoint" />
          </mxGeometry>
        </mxCell>
        <mxCell id="TP16WEpkgP-LbKeWSAi--50" value="Nombre" style="ellipse;whiteSpace=wrap;html=1;align=center;" vertex="1" parent="1">
          <mxGeometry x="1031" y="720" width="100" height="40" as="geometry" />
        </mxCell>
        <mxCell id="TP16WEpkgP-LbKeWSAi--51" value="" style="endArrow=none;html=1;rounded=0;exitX=0;exitY=1;exitDx=0;exitDy=0;" edge="1" parent="1" source="TP16WEpkgP-LbKeWSAi--5">
          <mxGeometry relative="1" as="geometry">
            <mxPoint x="910" y="720" as="sourcePoint" />
            <mxPoint x="1070" y="720" as="targetPoint" />
          </mxGeometry>
        </mxCell>
        <mxCell id="TP16WEpkgP-LbKeWSAi--53" value="ID_aerolinea" style="ellipse;whiteSpace=wrap;html=1;align=center;fontStyle=4;" vertex="1" parent="1">
          <mxGeometry x="1156" y="720" width="100" height="40" as="geometry" />
        </mxCell>
        <mxCell id="TP16WEpkgP-LbKeWSAi--54" value="" style="endArrow=none;html=1;rounded=0;exitX=0.5;exitY=1;exitDx=0;exitDy=0;entryX=0.5;entryY=0;entryDx=0;entryDy=0;" edge="1" parent="1" source="TP16WEpkgP-LbKeWSAi--5" target="TP16WEpkgP-LbKeWSAi--53">
          <mxGeometry relative="1" as="geometry">
            <mxPoint x="910" y="720" as="sourcePoint" />
            <mxPoint x="1070" y="720" as="targetPoint" />
          </mxGeometry>
        </mxCell>
        <mxCell id="TP16WEpkgP-LbKeWSAi--55" value="" style="endArrow=none;html=1;rounded=0;exitX=0.5;exitY=1;exitDx=0;exitDy=0;entryX=0.25;entryY=0;entryDx=0;entryDy=0;" edge="1" parent="1" source="TP16WEpkgP-LbKeWSAi--38" target="TP16WEpkgP-LbKeWSAi--3">
          <mxGeometry relative="1" as="geometry">
            <mxPoint x="910" y="260" as="sourcePoint" />
            <mxPoint x="1070" y="260" as="targetPoint" />
          </mxGeometry>
        </mxCell>
        <mxCell id="TP16WEpkgP-LbKeWSAi--56" value="" style="endArrow=none;html=1;rounded=0;exitX=0.5;exitY=1;exitDx=0;exitDy=0;entryX=0.75;entryY=0;entryDx=0;entryDy=0;" edge="1" parent="1" source="TP16WEpkgP-LbKeWSAi--39" target="TP16WEpkgP-LbKeWSAi--3">
          <mxGeometry relative="1" as="geometry">
            <mxPoint x="910" y="260" as="sourcePoint" />
            <mxPoint x="1070" y="260" as="targetPoint" />
          </mxGeometry>
        </mxCell>
        <mxCell id="TP16WEpkgP-LbKeWSAi--57" value="" style="endArrow=none;html=1;rounded=0;entryX=0;entryY=1;entryDx=0;entryDy=0;exitX=1;exitY=0;exitDx=0;exitDy=0;" edge="1" parent="1" source="TP16WEpkgP-LbKeWSAi--3" target="TP16WEpkgP-LbKeWSAi--40">
          <mxGeometry relative="1" as="geometry">
            <mxPoint x="910" y="260" as="sourcePoint" />
            <mxPoint x="1070" y="260" as="targetPoint" />
          </mxGeometry>
        </mxCell>
        <mxCell id="TP16WEpkgP-LbKeWSAi--58" value="" style="endArrow=none;html=1;rounded=0;entryX=0;entryY=0.5;entryDx=0;entryDy=0;exitX=1;exitY=0.5;exitDx=0;exitDy=0;" edge="1" parent="1" source="TP16WEpkgP-LbKeWSAi--3" target="TP16WEpkgP-LbKeWSAi--41">
          <mxGeometry relative="1" as="geometry">
            <mxPoint x="910" y="260" as="sourcePoint" />
            <mxPoint x="1070" y="260" as="targetPoint" />
          </mxGeometry>
        </mxCell>
        <mxCell id="TP16WEpkgP-LbKeWSAi--59" value="" style="endArrow=none;html=1;rounded=0;entryX=0;entryY=0;entryDx=0;entryDy=0;exitX=1;exitY=1;exitDx=0;exitDy=0;" edge="1" parent="1" source="TP16WEpkgP-LbKeWSAi--3" target="TP16WEpkgP-LbKeWSAi--42">
          <mxGeometry relative="1" as="geometry">
            <mxPoint x="910" y="260" as="sourcePoint" />
            <mxPoint x="1070" y="260" as="targetPoint" />
          </mxGeometry>
        </mxCell>
        <mxCell id="TP16WEpkgP-LbKeWSAi--60" value="" style="endArrow=none;html=1;rounded=0;entryX=0.5;entryY=1;entryDx=0;entryDy=0;exitX=0.5;exitY=0;exitDx=0;exitDy=0;" edge="1" parent="1" source="TP16WEpkgP-LbKeWSAi--9" target="TP16WEpkgP-LbKeWSAi--3">
          <mxGeometry relative="1" as="geometry">
            <mxPoint x="860" y="470" as="sourcePoint" />
            <mxPoint x="1020" y="470" as="targetPoint" />
          </mxGeometry>
        </mxCell>
        <mxCell id="TP16WEpkgP-LbKeWSAi--61" value="(1,M)" style="resizable=0;html=1;whiteSpace=wrap;align=right;verticalAlign=bottom;" connectable="0" vertex="1" parent="TP16WEpkgP-LbKeWSAi--60">
          <mxGeometry x="1" relative="1" as="geometry">
            <mxPoint y="20" as="offset" />
          </mxGeometry>
        </mxCell>
        <mxCell id="TP16WEpkgP-LbKeWSAi--62" value="" style="endArrow=none;html=1;rounded=0;entryX=0;entryY=0.5;entryDx=0;entryDy=0;exitX=1;exitY=0.5;exitDx=0;exitDy=0;" edge="1" parent="1" source="TP16WEpkgP-LbKeWSAi--8" target="TP16WEpkgP-LbKeWSAi--3">
          <mxGeometry relative="1" as="geometry">
            <mxPoint x="970" y="390" as="sourcePoint" />
            <mxPoint x="1130" y="390" as="targetPoint" />
          </mxGeometry>
        </mxCell>
        <mxCell id="TP16WEpkgP-LbKeWSAi--63" value="(1,1)" style="resizable=0;html=1;whiteSpace=wrap;align=right;verticalAlign=bottom;" connectable="0" vertex="1" parent="TP16WEpkgP-LbKeWSAi--62">
          <mxGeometry x="1" relative="1" as="geometry" />
        </mxCell>
        <mxCell id="TP16WEpkgP-LbKeWSAi--64" value="" style="endArrow=none;html=1;rounded=0;entryX=1;entryY=0.5;entryDx=0;entryDy=0;" edge="1" parent="1" source="TP16WEpkgP-LbKeWSAi--8" target="TP16WEpkgP-LbKeWSAi--6">
          <mxGeometry relative="1" as="geometry">
            <mxPoint x="970" y="390" as="sourcePoint" />
            <mxPoint x="1130" y="390" as="targetPoint" />
          </mxGeometry>
        </mxCell>
        <mxCell id="TP16WEpkgP-LbKeWSAi--65" value="(1,M)" style="resizable=0;html=1;whiteSpace=wrap;align=right;verticalAlign=bottom;" connectable="0" vertex="1" parent="TP16WEpkgP-LbKeWSAi--64">
          <mxGeometry x="1" relative="1" as="geometry">
            <mxPoint x="30" as="offset" />
          </mxGeometry>
        </mxCell>
        <mxCell id="TP16WEpkgP-LbKeWSAi--67" value="Fecha_inicio" style="ellipse;whiteSpace=wrap;html=1;align=center;" vertex="1" parent="1">
          <mxGeometry x="1290" y="680" width="100" height="40" as="geometry" />
        </mxCell>
        <mxCell id="TP16WEpkgP-LbKeWSAi--68" value="" style="endArrow=none;html=1;rounded=0;exitX=1;exitY=0.5;exitDx=0;exitDy=0;entryX=0;entryY=0.5;entryDx=0;entryDy=0;" edge="1" parent="1" source="TP16WEpkgP-LbKeWSAi--5" target="TP16WEpkgP-LbKeWSAi--67">
          <mxGeometry relative="1" as="geometry">
            <mxPoint x="1240" y="770" as="sourcePoint" />
            <mxPoint x="1400" y="770" as="targetPoint" />
          </mxGeometry>
        </mxCell>
      </root>
    </mxGraphModel>
  </diagram>
</mxfile>
